<svg width="313" height="69" viewBox="0 0 313 69" fill="none" xmlns="http://www.w3.org/2000/svg">
<path d="M14.2005 56.7403C12.9702 56.7403 11.9728 55.7437 11.9728 54.5145V9.108C11.9728 7.87872 12.9702 6.8822 14.2005 6.8822H20.2675C21.0482 6.8822 21.7719 7.29045 22.1751 7.9583L41.4564 39.8933C42.0334 40.8489 41.3446 42.0678 40.2276 42.0678C39.1153 42.0678 38.4258 40.8582 38.9932 39.9024L57.948 7.97254C58.3493 7.29662 59.0775 6.8822 59.8641 6.8822H65.8552C67.0831 6.8822 68.0795 7.87485 68.083 9.10164L68.2128 54.5081C68.2163 55.7399 67.2179 56.7403 65.9851 56.7403H59.6064C58.3779 56.7403 57.3812 55.7466 57.3786 54.5192L57.3136 24.2016C57.3128 23.8021 57.6367 23.4778 58.0365 23.4778C58.5973 23.4778 58.9445 24.0881 58.6576 24.5695L43.2745 50.3825C42.8728 51.0566 42.1456 51.4696 41.3604 51.4696H38.6752C37.8975 51.4696 37.176 51.0643 36.7718 50.4003L21.1909 24.8022C20.8374 24.2214 21.2559 23.4778 21.9362 23.4778C22.418 23.4778 22.8086 23.868 22.8086 24.3494V54.5145C22.8086 55.7437 21.8112 56.7403 20.5808 56.7403H14.2005Z" fill="#1E3A5F"/>
<path d="M94.6727 57.3101C90.5855 57.3101 86.9498 56.4554 83.7656 54.7459C80.6289 53.0365 78.1338 50.7098 76.2803 47.7658C74.4744 44.7743 73.5714 41.3792 73.5714 37.5805C73.5714 33.7343 74.4744 30.3392 76.2803 27.3952C78.1338 24.4037 80.6289 22.077 83.7656 20.4151C86.9498 18.7057 90.5855 17.851 94.6727 17.851C98.7124 17.851 102.324 18.7057 105.509 20.4151C108.693 22.077 111.188 24.38 112.994 27.324C114.8 30.268 115.703 33.6868 115.703 37.5805C115.703 41.3792 114.8 44.7743 112.994 47.7658C111.188 50.7098 108.693 53.0365 105.509 54.7459C102.324 56.4554 98.7124 57.3101 94.6727 57.3101ZM94.6727 48.1932C96.5262 48.1932 98.1896 47.7658 99.6629 46.9111C101.136 46.0564 102.301 44.8456 103.156 43.2786C104.011 41.6641 104.439 39.7648 104.439 37.5805C104.439 35.3488 104.011 33.4494 103.156 31.8825C102.301 30.3155 101.136 29.1047 99.6629 28.2499C98.1896 27.3952 96.5262 26.9679 94.6727 26.9679C92.8192 26.9679 91.1558 27.3952 89.6825 28.2499C88.2092 29.1047 87.0211 30.3155 86.1181 31.8825C85.2627 33.4494 84.8349 35.3488 84.8349 37.5805C84.8349 39.7648 85.2627 41.6641 86.1181 43.2786C87.0211 44.8456 88.2092 46.0564 89.6825 46.9111C91.1558 47.7658 92.8192 48.1932 94.6727 48.1932Z" fill="#1E3A5F"/>
<path d="M135.968 57.3101C131.453 57.3101 127.936 56.1705 125.417 53.8912C122.899 51.5645 121.639 48.1219 121.639 43.5635V12.1707C121.639 10.9414 122.637 9.94491 123.867 9.94491H130.532C131.763 9.94491 132.76 10.9414 132.76 12.1707V43.421C132.76 45.0355 133.188 46.2938 134.043 47.196C134.899 48.0507 136.063 48.4781 137.536 48.4781C138.169 48.4781 138.767 48.4167 139.332 48.2939C140.79 47.977 142.563 48.4544 143.095 49.8469L144.405 53.2758C144.768 54.2249 144.449 55.318 143.537 55.7669C142.739 56.1596 141.856 56.4841 140.887 56.7403C139.319 57.1201 137.679 57.3101 135.968 57.3101ZM117.95 26.9679C116.72 26.9679 115.722 25.9714 115.722 24.7421V20.6466C115.722 19.4173 116.72 18.4208 117.95 18.4208H140.085C141.315 18.4208 142.313 19.4173 142.313 20.6466V24.7421C142.313 25.9714 141.315 26.9679 140.085 26.9679H117.95Z" fill="#1E3A5F"/>
<path d="M150.641 56.7403C149.41 56.7403 148.413 55.7437 148.413 54.5145V20.6466C148.413 19.4173 149.41 18.4208 150.641 18.4208H157.306C158.536 18.4208 159.534 19.4173 159.534 20.6466V54.5145C159.534 55.7437 158.536 56.7403 157.306 56.7403H150.641ZM153.973 13.0788C151.93 13.0788 150.266 12.4853 148.983 11.2982C147.7 10.1111 147.058 8.6391 147.058 6.8822C147.058 5.12529 147.7 3.6533 148.983 2.4662C150.266 1.2791 151.93 0.685552 153.973 0.685552C156.017 0.685552 157.68 1.25536 158.964 2.39497C160.247 3.4871 160.888 4.91162 160.888 6.66852C160.888 8.52039 160.247 10.0636 158.964 11.2982C157.728 12.4853 156.065 13.0788 153.973 13.0788Z" fill="#1E3A5F"/>
<path d="M178.892 56.7403C177.995 56.7403 177.186 56.2028 176.838 55.3765L162.599 21.5086C161.982 20.0417 163.06 18.4208 164.653 18.4208H171.278C172.185 18.4208 173.001 18.9698 173.342 19.8092L185.115 48.777C185.624 50.0295 184.701 51.3983 183.348 51.3983C181.985 51.3983 181.062 50.0098 181.592 48.7543L193.804 19.7826C194.152 18.9574 194.961 18.4208 195.857 18.4208H201.714C203.308 18.4208 204.386 20.0446 203.766 21.5119L189.464 55.3797C189.115 56.2043 188.307 56.7403 187.411 56.7403H178.892Z" fill="#1E3A5F"/>
<path d="M230.979 56.7403C229.749 56.7403 228.751 55.7437 228.751 54.5145V49.7245C228.751 49.4191 228.689 49.117 228.567 48.837L228.223 48.0479C228.101 47.7679 228.039 47.4658 228.039 47.1604V34.2329C228.039 31.8587 227.302 30.0068 225.829 28.6773C224.403 27.3477 222.193 26.683 219.199 26.683C217.155 26.683 215.135 27.0154 213.139 27.6801C212.165 27.9888 211.262 28.3568 210.43 28.7842C209.181 29.426 207.551 29.0811 206.909 27.8329L205.042 24.2025C204.535 23.2152 204.827 21.994 205.793 21.4458C207.525 20.4633 209.498 19.6686 211.714 19.0618C214.66 18.2546 217.654 17.851 220.696 17.851C226.541 17.851 231.08 19.228 234.312 21.9821C237.544 24.7361 239.159 29.0334 239.159 34.8739V54.5145C239.159 55.7437 238.162 56.7403 236.932 56.7403H230.979ZM217.06 57.3101C214.066 57.3101 211.5 56.8115 209.361 55.8143C207.222 54.7697 205.583 53.3689 204.442 51.612C203.302 49.8551 202.731 47.8845 202.731 45.7003C202.731 43.421 203.278 41.4267 204.371 39.7173C205.511 38.0079 207.294 36.6783 209.717 35.7287C212.141 34.7315 215.302 34.2329 219.199 34.2329H227.165C228.396 34.2329 229.393 35.2294 229.393 36.4587V38.4887C229.393 39.7179 228.396 40.7145 227.165 40.7145H220.411C217.797 40.7145 215.991 41.1418 214.993 41.9965C214.042 42.8512 213.567 43.9196 213.567 45.2017C213.567 46.6262 214.114 47.7658 215.207 48.6205C216.347 49.4278 217.892 49.8314 219.84 49.8314C221.694 49.8314 223.357 49.404 224.831 48.5493C224.924 48.4924 225.015 48.4338 225.105 48.3737C226.461 47.4646 229.051 47.6659 229.567 49.2142C229.686 49.5688 229.691 49.9536 229.558 50.3029C228.718 52.5059 227.309 54.2006 225.33 55.387C223.191 56.669 220.434 57.3101 217.06 57.3101Z" fill="#1E3A5F"/>
<path d="M2.93402 6.77175C2.98402 6.73724 3.03975 6.71324 3.09805 6.70111C3.15634 6.68899 3.21605 6.68897 3.27376 6.70107C3.33147 6.71317 3.38606 6.73715 3.4344 6.77163C3.48274 6.80611 3.5239 6.85043 3.55551 6.90204C5.07689 9.38665 6.79543 11.091 9.01505 12.2863C9.55913 11.4428 9.83431 10.4358 9.79893 9.37947C9.752 7.97795 9.177 6.62709 8.13675 5.47327C7.20815 4.44324 6.14336 3.97501 5.11323 3.52221C3.81364 2.95087 1.85911 2.58866 0.967913 0.922218C0.868455 0.737663 0.350432 -0.00605787 0.160956 3.72479e-05C-0.0559072 0.00831914 0.0724192 1.06778 0.0310519 1.23926C-0.0110283 1.41057 0.0468529 3.34601 0.00453934 5.38811C-0.0638201 8.66885 0.653076 10.5116 1.26661 11.48C2.05954 12.7304 3.27777 13.6122 4.62217 13.9389C4.87548 14.0009 5.13335 14.0428 5.3936 14.0642C6.57509 14.1586 7.66854 13.7855 8.41571 13.0377C6.13898 11.7746 4.36487 9.99359 2.793 7.42811C2.76133 7.37642 2.73986 7.31841 2.7298 7.25742C2.71975 7.19642 2.72132 7.13364 2.73442 7.07267C2.74751 7.0117 2.77189 6.95373 2.80614 6.90209C2.84039 6.85045 2.88385 6.80616 2.93402 6.77175ZM10.2826 12.8931C9.84189 12.7071 9.42019 12.5046 9.01505 12.2863C8.86367 12.5211 8.6928 12.7426 8.50442 12.9461C8.47576 12.9773 8.4458 13.0078 8.41571 13.0377C8.90696 13.3094 9.41206 13.5543 9.92849 13.7712C9.98309 13.7957 11.3799 14.4141 11.4399 14.4142C11.4998 14.4143 11.5595 14.4019 11.6153 14.3777C11.6712 14.3534 11.7222 14.3178 11.7653 14.2729C11.8084 14.2281 11.8428 14.1749 11.8664 14.1164C11.89 14.058 11.9023 13.9955 11.9027 13.9326C11.9031 13.8697 11.8915 13.8076 11.8686 13.7501C11.8457 13.6926 11.812 13.6407 11.7695 13.5976C11.7269 13.5544 10.3382 12.9152 10.2826 12.8931Z" fill="#1E3A5F"/>
<path d="M7.81498 16.3696C7.80386 16.3571 7.79543 16.3427 7.79015 16.3273C7.78487 16.3118 7.78286 16.2955 7.78422 16.2793C7.78558 16.2632 7.79029 16.2475 7.79808 16.2332C7.80587 16.2188 7.81658 16.2061 7.82962 16.1957C8.45704 15.6971 8.86468 15.171 9.11636 14.5255C8.8676 14.4055 8.58324 14.3644 8.29589 14.4097C7.91462 14.4697 7.565 14.6721 7.28488 14.9946C7.03482 15.2826 6.94281 15.5887 6.85384 15.8849C6.74159 16.2585 6.70853 16.8037 6.28336 17.1029C6.2363 17.1363 6.0506 17.3026 6.05866 17.3541C6.06823 17.4129 6.35331 17.3422 6.40155 17.3477C6.44976 17.3534 6.97651 17.2724 7.53577 17.2151C8.43427 17.1231 8.91347 16.8655 9.15732 16.6656C9.47217 16.4072 9.67197 16.0453 9.7159 15.6676C9.7243 15.5965 9.72704 15.5247 9.72411 15.4531C9.71007 15.1277 9.5713 14.8421 9.34183 14.6636C9.07354 15.327 8.64684 15.8708 7.99903 16.3859C7.98597 16.3963 7.97085 16.4041 7.95453 16.4089C7.93821 16.4137 7.921 16.4154 7.90391 16.4139C7.88681 16.4124 7.87015 16.4077 7.85489 16.4001C7.83963 16.3925 7.82607 16.3821 7.81498 16.3696ZM9.2394 14.1594C9.20343 14.2858 9.16234 14.4076 9.11636 14.5255C9.18561 14.5588 9.25187 14.598 9.31383 14.6425C9.3233 14.6492 9.33265 14.6564 9.34183 14.6636C9.3995 14.5204 9.44936 14.3745 9.49121 14.2263C9.49606 14.2106 9.61787 13.8088 9.61589 13.7925C9.61391 13.7762 9.6085 13.7603 9.59999 13.7459C9.59148 13.7315 9.58004 13.7188 9.56633 13.7085C9.55263 13.6983 9.53693 13.6907 9.52017 13.6862C9.50341 13.6818 9.48592 13.6805 9.46872 13.6825C9.45153 13.6845 9.43497 13.6898 9.42003 13.698C9.40509 13.7062 9.39206 13.7171 9.38171 13.7302C9.37136 13.7432 9.24355 14.1435 9.2394 14.1594Z" fill="#1E3A5F"/>
<path d="M248.554 17.8065V31.9301C248.196 32.2921 248.554 32.3197 248.554 32.811C248.554 33.9142 248.554 34.5762 248.554 34.5762V42.0617C248.554 42.5215 248.554 42.9236 248.554 43.4408C248.554 44.5182 248.554 45.1693 248.554 45.1693V52.2303C248.554 53.1129 248.554 53.5214 248.554 53.9955C248.554 55.116 248.556 55.7607 248.554 56.4215H252.765V66.2418C252.765 67.7674 254.076 69 255.699 69C257.323 69 258.634 67.7674 258.634 66.2418V56.4215H274.087C275.279 56.4215 276.242 55.5164 276.242 54.3959C276.242 53.9219 276.068 53.465 275.747 53.103L268.905 45.3887H271.968C273.115 45.3887 274.041 44.5182 274.041 43.4408C274.041 42.9236 273.821 42.4237 273.436 42.0617L266.704 35.7351H268.988C270.153 35.7351 271.106 34.8473 271.106 33.744C271.106 33.2527 270.914 32.7701 270.556 32.408L256.928 18.3155C256.616 17.9879 256.167 17.8069 255.699 17.8069C255.232 17.8069 249.447 17.8065 248.554 17.8065Z" fill="#1E3A5F"/>
<path d="M285.312 17.8065V31.9301C284.954 32.2921 285.312 32.3197 285.312 32.811C285.312 33.9142 285.312 34.5762 285.312 34.5762V42.0617C285.312 42.5215 285.312 42.9236 285.312 43.4408C285.312 44.5182 285.312 45.1693 285.312 45.1693V52.2303C285.312 53.1129 285.312 53.5214 285.312 53.9955C285.312 55.116 285.314 55.7607 285.312 56.4215H289.523V66.2418C289.523 67.7674 290.834 69 292.457 69C294.081 69 295.392 67.7674 295.392 66.2418V56.4215H310.845C312.037 56.4215 313 55.5164 313 54.3959C313 53.9219 312.826 53.465 312.505 53.103L305.663 45.3887H308.726C309.873 45.3887 310.799 44.5182 310.799 43.4408C310.799 42.9236 310.579 42.4237 310.194 42.0617L303.462 35.7351H305.746C306.911 35.7351 307.864 34.8473 307.864 33.744C307.864 33.2527 307.672 32.7701 307.314 32.408L293.686 18.3155C293.374 17.9879 292.925 17.8069 292.457 17.8069C291.99 17.8069 286.205 17.8065 285.312 17.8065Z" fill="#1E3A5F"/>
</svg>
