<svg width="55" height="18" viewBox="0 0 55 18" fill="none" xmlns="http://www.w3.org/2000/svg">
<path d="M44.4287 4.75C43.4446 2.71276 43.3793 2.67041 44.4287 1L41.9287 1L32.9109 1L27.9287 2L22.4287 1L1.42871 1.03125V16.9688H22.4287L27.9287 16L32.9109 17H41.9287L44.4287 16.9688C43.4822 15.3001 43.4646 16.3816 44.4287 14.3125C43.3494 12.3733 43.4673 11.3421 44.4287 9.53125C43.3232 7.6691 43.483 6.61047 44.4287 4.75Z" fill="#FFA38F"/>
<path d="M51.2859 11.6667V6.33333M51.2859 11.6667C51.2859 12.2558 51.9894 12.7333 52.8573 12.7333H53.6954C54.1004 12.7333 54.4287 12.405 54.4287 12V12V9L54.4285 6.33333C54.4285 6.31105 54.4285 6.28892 54.4285 6.26698C54.4285 5.71455 53.9808 5.26667 53.4283 5.26667H52.8573C51.9894 5.26667 51.2859 5.74423 51.2859 6.33333M51.2859 11.6667H48.9287C48.0608 11.6667 47.3573 12.1442 47.3573 12.7333V15.9333C47.3573 16.5224 46.6537 17 45.7859 17H42.643M51.2859 6.33333H48.9287C48.0608 6.33333 47.3573 5.85577 47.3573 5.26667V2.06667C47.3573 1.47756 46.6537 1 45.7859 1L42.643 1M42.643 17V14.3333M42.643 17H37.9287M37.9287 17V14.3333M37.9287 17H33.2144M33.2144 17V14.3333M33.2144 17L27.7144 16.1111M27.7144 16.1111V12.5556M27.7144 16.1111L22.2144 17M22.2144 17V14.3333M22.2144 17H16.7144M16.7144 17V14.3333M16.7144 17H11.2144M11.2144 17V14.3333M11.2144 17H5.71442M5.71442 17V14.3333M5.71442 17H2.57157C1.70369 17 1.00014 16.5224 1.00014 15.9333V2.06667C1.00014 1.47756 1.70369 1 2.57157 1L5.71442 1M5.71442 1V4.55556M5.71442 1L11.2144 1M11.2144 1V4.55556M11.2144 1L16.7144 1M16.7144 1V4.55556M16.7144 1L22.2144 1M22.2144 1V4.55556M22.2144 1L27.7144 1.88889M27.7144 1.88889V5.44444M27.7144 1.88889L33.2144 1M33.2144 1V4.55556M33.2144 1L37.9287 1M37.9287 1V4.55556M37.9287 1L42.643 1M42.643 1V4.55556" stroke="#264653" stroke-width="0.75" stroke-linecap="round"/>
</svg>
