<svg width="44" height="19" viewBox="0 0 44 19" fill="none" xmlns="http://www.w3.org/2000/svg">
<path d="M36 5.5C35.3099 3.45477 35.2641 2.67696 36 1L27.9231 1L23.0769 2L20.3846 1.5L18.7692 1L8.53846 1L1 1.5V10L1.53846 18L16.0769 18H19.0923L23.0769 17L27.9231 18L36 18C35.3363 16.3248 35.3239 15.5773 36 13.5C35.2431 11.5531 35.3258 10.8179 36 9C35.2248 7.13054 35.3368 7.36777 36 5.5Z" fill="#FFA38F"/>
<path d="M40.3143 12.3333V6.66667M40.3143 12.3333C40.3143 12.9593 40.8643 13.4667 41.5429 13.4667H42.007C42.4582 13.4667 42.8575 13.1647 42.931 12.7194C42.9696 12.4852 43 12.2283 43 12L42.9998 7C42.9998 6.77175 42.9694 6.51494 42.9309 6.28075C42.8575 5.83543 42.4582 5.53333 42.0068 5.53333H41.5429C40.8643 5.53333 40.3143 6.04074 40.3143 6.66667M40.3143 12.3333L38.4714 12.3333C37.7929 12.3333 37.2429 12.8407 37.2429 13.4667V16.8667C37.2429 17.4926 36.6928 18 36.0143 18L33.5571 18M40.3143 6.66667H38.4714C37.7929 6.66667 37.2429 6.15926 37.2429 5.53333V2.13333C37.2429 1.50741 36.6928 1 36.0143 1L33.5571 1M33.5571 18V15.1667M33.5571 18H29.8714M29.8714 18V15.1667M29.8714 18H26.1857M26.1857 18V15.1667M26.1857 18L21.8857 17.0556M21.8857 17.0556V13.2778M21.8857 17.0556L17.5857 18M17.5857 18V15.1667M17.5857 18H13.2857M13.2857 18V15.1667M13.2857 18H8.98571M8.98571 18L8.98571 15.1667M8.98571 18L4.68572 18M4.68572 18L4.68572 15.1667M4.68572 18H2.22857C1.55005 18 1 17.4926 1 16.8667L1 2.13333C1 1.50741 1.55005 1 2.22857 1L4.68572 1M4.68572 1V4.77778M4.68572 1L8.98571 1M8.98571 1V4.77778M8.98571 1L13.2857 1M13.2857 1V4.77778M13.2857 1L17.5857 1M17.5857 1V4.77778M17.5857 1L21.8857 1.94444M21.8857 1.94444V5.72222M21.8857 1.94444L26.1857 1M26.1857 1V4.77778M26.1857 1L29.8714 1M29.8714 1V4.77778M29.8714 1L33.5571 1M33.5571 1V4.77778" stroke="#264653" stroke-width="0.75" stroke-linecap="round"/>
</svg>
