<svg width="12" height="37" viewBox="0 0 12 37" fill="none" xmlns="http://www.w3.org/2000/svg">
<path d="M3 8C1.72173 8.64084 2.0481 8.68334 1 8L1 14.16L1.5 16.96V18.3704L1 21.44L1 36H11L11 22V19.2L10.5 16.96L11 12.48V8C9.953 8.61633 10.2983 8.62782 9 8C7.78322 8.70283 7.1362 8.62604 6 8C4.83159 8.71984 4.16736 8.61583 3 8Z" fill="#FFA38F"/>
<path d="M7.66667 4L4.33333 4M7.66667 4C8.03486 4 8.33333 3.55228 8.33333 3V2C8.33333 1.44772 8.03486 1 7.66667 1L4.33333 1C3.96514 1 3.66667 1.44772 3.66667 2V3C3.66667 3.55228 3.96514 4 4.33333 4M7.66667 4V5.5C7.66667 6.05228 7.96514 6.5 8.33333 6.5L10.3333 6.5C10.7015 6.5 11 6.94772 11 7.5V9.5M4.33333 4V5.5C4.33333 6.05228 4.03486 6.5 3.66667 6.5H1.66667C1.29848 6.5 1 6.94772 1 7.5L1 9.5M11 9.5H9.33333M11 9.5V12.5M11 12.5H9.33333M11 12.5V15.5M11 15.5H9.33333M11 15.5L10.4444 19M10.4444 19H8.22222M10.4444 19L11 22.5M11 22.5H9.33333M11 22.5V26M11 26H9.33333M11 26V29.5M11 29.5H9.33333M11 29.5V33M11 33H9.33333M11 33V35C11 35.5523 10.7015 36 10.3333 36H1.66667C1.29848 36 1 35.5523 1 35L1 33M1 33H3.22222M1 33L1 29.5M1 29.5H3.22222M1 29.5V26M1 26H3.22222M1 26L1 22.5M1 22.5H3.22222M1 22.5L1.55556 19M1.55556 19H3.77778M1.55556 19L1 15.5M1 15.5H3.22222M1 15.5V12.5M1 12.5H3.22222M1 12.5L1 9.5M1 9.5H3.22222" stroke="#264653" stroke-width="0.75" stroke-linecap="round"/>
</svg>
