<svg width="61" height="61" viewBox="0 0 61 61" fill="none" xmlns="http://www.w3.org/2000/svg">
<path d="M23.75 22.8747V21.9997H22.875H10.1667C9.66688 21.9997 9.28941 21.8402 8.97445 21.5252C8.65949 21.2103 8.5 20.8328 8.5 20.333C8.5 19.8332 8.65949 19.4557 8.97445 19.1408C9.28941 18.8258 9.66688 18.6663 10.1667 18.6663H50.8333C51.3331 18.6663 51.7106 18.8258 52.0256 19.1408C52.3405 19.4557 52.5 19.8332 52.5 20.333C52.5 20.8328 52.3405 21.2103 52.0256 21.5252C51.7106 21.8402 51.3331 21.9997 50.8333 21.9997H38.125H37.25V22.8747V53.3747C37.25 53.8745 37.0905 54.2519 36.7756 54.5669C36.4606 54.8819 36.0831 55.0413 35.5833 55.0413C35.0835 55.0413 34.7061 54.8819 34.3911 54.5669C34.0762 54.2519 33.9167 53.8745 33.9167 53.3747V40.6663V39.7913H33.0417H27.9583H27.0833V40.6663V53.3747C27.0833 53.8745 26.9238 54.2519 26.6089 54.5669C26.2939 54.8819 25.9165 55.0413 25.4167 55.0413C24.9169 55.0413 24.5394 54.8819 24.2244 54.5669C23.9095 54.2519 23.75 53.8745 23.75 53.3747V22.8747ZM30.5 14.3747C29.336 14.3747 28.3613 13.9704 27.5286 13.1377C26.6959 12.305 26.2917 11.3303 26.2917 10.1663C26.2917 9.00233 26.6959 8.02766 27.5286 7.19496C28.3613 6.36225 29.336 5.95801 30.5 5.95801C31.664 5.95801 32.6387 6.36225 33.4714 7.19496C34.3041 8.02766 34.7083 9.00233 34.7083 10.1663C34.7083 11.3303 34.3041 12.305 33.4714 13.1377C32.6387 13.9704 31.664 14.3747 30.5 14.3747Z" stroke="black" stroke-width="1.75"/>
</svg>
