<svg width="61" height="61" viewBox="0 0 61 61" fill="none" xmlns="http://www.w3.org/2000/svg">
<path d="M30.5 15.2497C29.1021 15.2497 27.9054 14.7519 26.9099 13.7564C25.9144 12.761 25.4167 11.5643 25.4167 10.1663C25.4167 8.76842 25.9144 7.57172 26.9099 6.57624C27.9054 5.58075 29.1021 5.08301 30.5 5.08301C31.8979 5.08301 33.0946 5.58075 34.0901 6.57624C35.0856 7.57172 35.5833 8.76842 35.5833 10.1663C35.5833 11.5643 35.0856 12.761 34.0901 13.7564C33.0946 14.7519 31.8979 15.2497 30.5 15.2497ZM22.875 53.3747V22.8747H10.1667C9.44653 22.8747 8.84288 22.6311 8.35573 22.1439C7.86858 21.6568 7.625 21.0531 7.625 20.333C7.625 19.6129 7.86858 19.0092 8.35573 18.5221C8.84288 18.0349 9.44653 17.7913 10.1667 17.7913H50.8333C51.5535 17.7913 52.1571 18.0349 52.6443 18.5221C53.1314 19.0092 53.375 19.6129 53.375 20.333C53.375 21.0531 53.1314 21.6568 52.6443 22.1439C52.1571 22.6311 51.5535 22.8747 50.8333 22.8747H38.125V53.3747C38.125 54.0948 37.8814 54.6985 37.3943 55.1856C36.9071 55.6728 36.3035 55.9163 35.5833 55.9163C34.8632 55.9163 34.2595 55.6728 33.7724 55.1856C33.2852 54.6985 33.0417 54.0948 33.0417 53.3747V40.6663H27.9583V53.3747C27.9583 54.0948 27.7148 54.6985 27.2276 55.1856C26.7405 55.6728 26.1368 55.9163 25.4167 55.9163C24.6965 55.9163 24.0929 55.6728 23.6057 55.1856C23.1186 54.6985 22.875 54.0948 22.875 53.3747Z" fill="black"/>
</svg>
