<svg width="61" height="61" viewBox="0 0 61 61" fill="none" xmlns="http://www.w3.org/2000/svg">
<path d="M5.71875 30.5H55.2812" stroke="black" stroke-width="4" stroke-linecap="round" stroke-linejoin="round"/>
<path d="M49.5625 17.1562C49.5625 16.1035 48.709 15.25 47.6562 15.25C46.6035 15.25 45.75 16.1035 45.75 17.1562V43.8438C45.75 44.8965 46.6035 45.75 47.6562 45.75C48.709 45.75 49.5625 44.8965 49.5625 43.8438V17.1562Z" stroke="black" stroke-width="4" stroke-linecap="round" stroke-linejoin="round"/>
<path d="M15.25 17.1562C15.25 16.1035 14.3965 15.25 13.3438 15.25C12.291 15.25 11.4375 16.1035 11.4375 17.1562V43.8438C11.4375 44.8965 12.291 45.75 13.3438 45.75C14.3965 45.75 15.25 44.8965 15.25 43.8438V17.1562Z" stroke="black" stroke-width="4" stroke-linecap="round" stroke-linejoin="round"/>
<path d="M5.71875 23.8281C5.71875 23.3017 5.29202 22.875 4.76562 22.875C4.23923 22.875 3.8125 23.3017 3.8125 23.8281V37.1719C3.8125 37.6983 4.23923 38.125 4.76562 38.125C5.29202 38.125 5.71875 37.6983 5.71875 37.1719V23.8281Z" stroke="black" stroke-width="4" stroke-linecap="round" stroke-linejoin="round"/>
<path d="M57.1875 23.8281C57.1875 23.3017 56.7608 22.875 56.2344 22.875C55.708 22.875 55.2812 23.3017 55.2812 23.8281V37.1719C55.2812 37.6983 55.708 38.125 56.2344 38.125C56.7608 38.125 57.1875 37.6983 57.1875 37.1719V23.8281Z" stroke="black" stroke-width="4" stroke-linecap="round" stroke-linejoin="round"/>
</svg>
