<svg width="61" height="61" viewBox="0 0 61 61" fill="none" xmlns="http://www.w3.org/2000/svg">
<path fill-rule="evenodd" clip-rule="evenodd" d="M11.6602 54.4231C12.6557 55.4186 13.8524 55.9163 15.2503 55.9163H45.7503C47.1482 55.9163 48.3449 55.4186 49.3404 54.4231C50.3359 53.4276 50.8337 52.2309 50.8337 50.833V10.1663C50.8337 8.76842 50.3359 7.57172 49.3404 6.57624C48.3449 5.58075 47.1482 5.08301 45.7503 5.08301H40.667V10.1663V25.734C40.667 26.2424 40.4552 26.613 40.0316 26.846C39.608 27.079 39.1844 27.0684 38.7607 26.8143L35.6472 24.908C35.2236 24.6538 34.7894 24.5268 34.3446 24.5268L33.4888 24.6885C33.3386 24.7463 33.1896 24.8194 33.042 24.908L29.9285 26.8143C29.5048 27.0684 29.0706 27.079 28.6258 26.846C28.1811 26.613 27.9587 26.2424 27.9587 25.734V10.1663V5.08301H15.2503C13.8524 5.08301 12.6557 5.58075 11.6602 6.57624C10.6647 7.57172 10.167 8.76842 10.167 10.1663V50.833C10.167 52.2309 10.6647 53.4276 11.6602 54.4231Z" fill="black"/>
</svg>
