<svg width="61" height="61" viewBox="0 0 61 61" fill="none" xmlns="http://www.w3.org/2000/svg">
<path d="M14.4163 55.9163C13.0184 55.9163 11.8217 55.4186 10.8262 54.4231C9.83075 53.4276 9.33301 52.2309 9.33301 50.833V10.1663C9.33301 8.76842 9.83075 7.57172 10.8262 6.57624C11.8217 5.58075 13.0184 5.08301 14.4163 5.08301H44.9163C46.3143 5.08301 47.511 5.58075 48.5064 6.57624C49.5019 7.57172 49.9997 8.76842 49.9997 10.1663V50.833C49.9997 52.2309 49.5019 53.4276 48.5064 54.4231C47.511 55.4186 46.3143 55.9163 44.9163 55.9163H14.4163ZM13.666 51C13.666 51.5523 14.1137 52 14.666 52H45.166C45.7183 52 46.166 51.5523 46.166 51V10C46.166 9.44772 45.7183 9 45.166 9H39.833V25.734C39.833 26.2424 39.6212 26.613 39.1976 26.846C38.774 27.079 38.3504 27.0684 37.9268 26.8143L34.8132 24.908C34.3896 24.6538 33.9554 24.5268 33.5106 24.5268C33.0658 24.5268 32.6316 24.6538 32.208 24.908L29.0945 26.8143C28.6709 27.0684 28.2367 27.079 27.7919 26.846C27.3471 26.613 27.1247 26.2424 27.1247 25.734V9H14.666C14.1137 9 13.666 9.44772 13.666 10V51Z" fill="black"/>
</svg>
