<svg width="54" height="61" viewBox="0 0 54 61" fill="none" xmlns="http://www.w3.org/2000/svg">
<mask id="path-1-inside-1_572_2361" fill="white">
<path d="M10.4143 0.655273L7.44911 5.67109C6.99107 6.44551 6.75 7.33906 6.75 8.24453V8.57812C6.75 11.2111 8.90759 13.3438 11.5714 13.3438C14.2353 13.3438 16.3929 11.2111 16.3929 8.57812V8.24453C16.3929 7.33906 16.1518 6.45742 15.6937 5.67109L12.7286 0.655273C12.4875 0.250195 12.0536 0 11.5714 0C11.0893 0 10.6554 0.250195 10.4143 0.655273ZM25.8429 0.655273L22.8777 5.67109C22.4196 6.44551 22.1786 7.33906 22.1786 8.24453V8.57812C22.1786 11.2111 24.3362 13.3438 27 13.3438C29.6638 13.3438 31.8214 11.2111 31.8214 8.57812V8.24453C31.8214 7.33906 31.5804 6.45742 31.1223 5.67109L28.1571 0.655273C27.9161 0.250195 27.4821 0 27 0C26.5179 0 26.0839 0.250195 25.8429 0.655273ZM38.3062 5.67109C37.8482 6.44551 37.6071 7.33906 37.6071 8.24453V8.57812C37.6071 11.2111 39.7647 13.3438 42.4286 13.3438C45.0924 13.3438 47.25 11.2111 47.25 8.57812V8.24453C47.25 7.33906 47.0089 6.45742 46.5509 5.67109L43.5857 0.655273C43.3446 0.250195 42.9107 0 42.4286 0C41.9464 0 41.5125 0.250195 41.2714 0.655273L38.3062 5.67109ZM15.4286 20.9688C15.4286 18.86 13.7049 17.1562 11.5714 17.1562C9.43795 17.1562 7.71429 18.86 7.71429 20.9688V26.6875C3.45937 26.6875 0 30.1068 0 34.3125V42.7715C1.00045 43.391 2.1817 43.8438 3.47143 43.8438C5.09866 43.8438 6.75 43.117 8.1 42.2473C8.75089 41.8303 9.2933 41.4014 9.66696 41.0916C9.84777 40.9367 9.99241 40.8057 10.0888 40.7223C10.1371 40.6746 10.1732 40.6508 10.1853 40.627L10.1973 40.615C10.571 40.2338 11.0893 40.0313 11.6317 40.0432C12.1741 40.0551 12.6683 40.2934 13.0299 40.6865L13.042 40.6984C13.054 40.7104 13.0902 40.7461 13.1263 40.7818C13.2107 40.8652 13.3312 40.9844 13.5 41.1393C13.8375 41.449 14.3196 41.866 14.9223 42.2711C16.1518 43.117 17.6946 43.8318 19.2978 43.8318C20.9009 43.8318 22.4437 43.117 23.6732 42.2711C24.2759 41.8541 24.758 41.449 25.0955 41.1393C25.2643 40.9844 25.3848 40.8652 25.4692 40.7818C25.5054 40.7461 25.5415 40.7104 25.5536 40.6984L25.5656 40.6865C25.9272 40.2695 26.4576 40.0432 27.0121 40.0432C27.5665 40.0432 28.0969 40.2814 28.4585 40.6865L28.4705 40.6984C28.4826 40.7104 28.5187 40.7461 28.5549 40.7818C28.6393 40.8652 28.7598 40.9844 28.9286 41.1393C29.2661 41.449 29.7482 41.866 30.3509 42.2711C31.5804 43.117 33.1232 43.8318 34.7263 43.8318C36.3295 43.8318 37.8723 43.117 39.1018 42.2711C39.7045 41.8541 40.1866 41.449 40.5241 41.1393C40.6929 40.9844 40.8134 40.8652 40.8978 40.7818C40.9339 40.7461 40.9701 40.7104 40.9821 40.6984L40.9942 40.6865C41.3437 40.2814 41.85 40.0551 42.3924 40.0432C42.9348 40.0313 43.4411 40.2338 43.8268 40.615L43.8388 40.627C43.8629 40.6508 43.8871 40.6746 43.9353 40.7223C44.0317 40.8057 44.1643 40.9367 44.3571 41.0916C44.7308 41.4014 45.2612 41.8303 45.9241 42.2473C47.2741 43.117 48.9254 43.8438 50.5527 43.8438C51.8424 43.8438 53.0237 43.3791 54.0241 42.7715V34.3125C54.0241 30.1068 50.5647 26.6875 46.3098 26.6875V20.9688C46.3098 18.86 44.5862 17.1562 42.4527 17.1562C40.3192 17.1562 38.5955 18.86 38.5955 20.9688V26.6875H30.8813V20.9688C30.8813 18.86 29.1576 17.1562 27.0241 17.1562C24.8906 17.1562 23.167 18.86 23.167 20.9688V26.6875H15.4527V20.9688H15.4286ZM54 47.0129C52.9754 47.4061 51.8062 47.6562 50.5286 47.6562C47.8165 47.6562 45.4179 46.4768 43.8027 45.4402C43.3085 45.1186 42.8625 44.7969 42.4888 44.5109C42.1513 44.7969 41.7536 45.1066 41.3076 45.4045C39.7527 46.4648 37.4384 47.6562 34.7143 47.6562C31.9902 47.6562 29.6759 46.4648 28.133 45.4045C27.7112 45.1186 27.3254 44.8207 27 44.5467C26.6746 44.8207 26.2888 45.1066 25.867 45.4045C24.3241 46.4648 22.0098 47.6562 19.2857 47.6562C16.5616 47.6562 14.2473 46.4648 12.7045 45.4045C12.2585 45.0947 11.8607 44.785 11.5232 44.5109C11.1496 44.7969 10.7036 45.1186 10.2094 45.4402C8.58214 46.4768 6.18348 47.6562 3.47143 47.6562C2.19375 47.6562 1.02455 47.3941 0 47.0129V57.1875C0 59.2963 1.72366 61 3.85714 61H50.1429C52.2763 61 54 59.2963 54 57.1875V47.0129Z"/>
</mask>
<path d="M10.4143 0.655273L7.44911 5.67109C6.99107 6.44551 6.75 7.33906 6.75 8.24453V8.57812C6.75 11.2111 8.90759 13.3438 11.5714 13.3438C14.2353 13.3438 16.3929 11.2111 16.3929 8.57812V8.24453C16.3929 7.33906 16.1518 6.45742 15.6937 5.67109L12.7286 0.655273C12.4875 0.250195 12.0536 0 11.5714 0C11.0893 0 10.6554 0.250195 10.4143 0.655273ZM25.8429 0.655273L22.8777 5.67109C22.4196 6.44551 22.1786 7.33906 22.1786 8.24453V8.57812C22.1786 11.2111 24.3362 13.3438 27 13.3438C29.6638 13.3438 31.8214 11.2111 31.8214 8.57812V8.24453C31.8214 7.33906 31.5804 6.45742 31.1223 5.67109L28.1571 0.655273C27.9161 0.250195 27.4821 0 27 0C26.5179 0 26.0839 0.250195 25.8429 0.655273ZM38.3062 5.67109C37.8482 6.44551 37.6071 7.33906 37.6071 8.24453V8.57812C37.6071 11.2111 39.7647 13.3438 42.4286 13.3438C45.0924 13.3438 47.25 11.2111 47.25 8.57812V8.24453C47.25 7.33906 47.0089 6.45742 46.5509 5.67109L43.5857 0.655273C43.3446 0.250195 42.9107 0 42.4286 0C41.9464 0 41.5125 0.250195 41.2714 0.655273L38.3062 5.67109ZM15.4286 20.9688C15.4286 18.86 13.7049 17.1562 11.5714 17.1562C9.43795 17.1562 7.71429 18.86 7.71429 20.9688V26.6875C3.45937 26.6875 0 30.1068 0 34.3125V42.7715C1.00045 43.391 2.1817 43.8438 3.47143 43.8438C5.09866 43.8438 6.75 43.117 8.1 42.2473C8.75089 41.8303 9.2933 41.4014 9.66696 41.0916C9.84777 40.9367 9.99241 40.8057 10.0888 40.7223C10.1371 40.6746 10.1732 40.6508 10.1853 40.627L10.1973 40.615C10.571 40.2338 11.0893 40.0313 11.6317 40.0432C12.1741 40.0551 12.6683 40.2934 13.0299 40.6865L13.042 40.6984C13.054 40.7104 13.0902 40.7461 13.1263 40.7818C13.2107 40.8652 13.3312 40.9844 13.5 41.1393C13.8375 41.449 14.3196 41.866 14.9223 42.2711C16.1518 43.117 17.6946 43.8318 19.2978 43.8318C20.9009 43.8318 22.4437 43.117 23.6732 42.2711C24.2759 41.8541 24.758 41.449 25.0955 41.1393C25.2643 40.9844 25.3848 40.8652 25.4692 40.7818C25.5054 40.7461 25.5415 40.7104 25.5536 40.6984L25.5656 40.6865C25.9272 40.2695 26.4576 40.0432 27.0121 40.0432C27.5665 40.0432 28.0969 40.2814 28.4585 40.6865L28.4705 40.6984C28.4826 40.7104 28.5187 40.7461 28.5549 40.7818C28.6393 40.8652 28.7598 40.9844 28.9286 41.1393C29.2661 41.449 29.7482 41.866 30.3509 42.2711C31.5804 43.117 33.1232 43.8318 34.7263 43.8318C36.3295 43.8318 37.8723 43.117 39.1018 42.2711C39.7045 41.8541 40.1866 41.449 40.5241 41.1393C40.6929 40.9844 40.8134 40.8652 40.8978 40.7818C40.9339 40.7461 40.9701 40.7104 40.9821 40.6984L40.9942 40.6865C41.3437 40.2814 41.85 40.0551 42.3924 40.0432C42.9348 40.0313 43.4411 40.2338 43.8268 40.615L43.8388 40.627C43.8629 40.6508 43.8871 40.6746 43.9353 40.7223C44.0317 40.8057 44.1643 40.9367 44.3571 41.0916C44.7308 41.4014 45.2612 41.8303 45.9241 42.2473C47.2741 43.117 48.9254 43.8438 50.5527 43.8438C51.8424 43.8438 53.0237 43.3791 54.0241 42.7715V34.3125C54.0241 30.1068 50.5647 26.6875 46.3098 26.6875V20.9688C46.3098 18.86 44.5862 17.1562 42.4527 17.1562C40.3192 17.1562 38.5955 18.86 38.5955 20.9688V26.6875H30.8813V20.9688C30.8813 18.86 29.1576 17.1562 27.0241 17.1562C24.8906 17.1562 23.167 18.86 23.167 20.9688V26.6875H15.4527V20.9688H15.4286ZM54 47.0129C52.9754 47.4061 51.8062 47.6562 50.5286 47.6562C47.8165 47.6562 45.4179 46.4768 43.8027 45.4402C43.3085 45.1186 42.8625 44.7969 42.4888 44.5109C42.1513 44.7969 41.7536 45.1066 41.3076 45.4045C39.7527 46.4648 37.4384 47.6562 34.7143 47.6562C31.9902 47.6562 29.6759 46.4648 28.133 45.4045C27.7112 45.1186 27.3254 44.8207 27 44.5467C26.6746 44.8207 26.2888 45.1066 25.867 45.4045C24.3241 46.4648 22.0098 47.6562 19.2857 47.6562C16.5616 47.6562 14.2473 46.4648 12.7045 45.4045C12.2585 45.0947 11.8607 44.785 11.5232 44.5109C11.1496 44.7969 10.7036 45.1186 10.2094 45.4402C8.58214 46.4768 6.18348 47.6562 3.47143 47.6562C2.19375 47.6562 1.02455 47.3941 0 47.0129V57.1875C0 59.2963 1.72366 61 3.85714 61H50.1429C52.2763 61 54 59.2963 54 57.1875V47.0129Z" stroke="black" stroke-width="6" mask="url(#path-1-inside-1_572_2361)"/>
</svg>
