<svg width="61" height="61" viewBox="0 0 61 61" fill="none" xmlns="http://www.w3.org/2000/svg">
<path d="M9.53125 26.6875L14.0324 16.1853C14.7651 14.4756 16.632 13.3438 18.7182 13.3438H42.2818C44.368 13.3438 46.2349 14.4756 46.9676 16.1853L51.4688 26.6875M9.53125 26.6875H51.4688M9.53125 26.6875V43.8438M51.4688 26.6875V43.8438M51.4688 43.8438H9.53125M51.4688 43.8438V47.6562H47.6562V43.8438M9.53125 43.8438V47.6562H13.3438V43.8438" stroke="black" stroke-width="3" stroke-linecap="round" stroke-linejoin="round"/>
<path d="M17.1562 36.2188C18.209 36.2188 19.0625 35.3653 19.0625 34.3125C19.0625 33.2597 18.209 32.4062 17.1562 32.4062C16.1035 32.4062 15.25 33.2597 15.25 34.3125C15.25 35.3653 16.1035 36.2188 17.1562 36.2188Z" stroke="black" stroke-width="4" stroke-linecap="round" stroke-linejoin="round"/>
<path d="M43.8438 36.2188C44.8965 36.2188 45.75 35.3653 45.75 34.3125C45.75 33.2597 44.8965 32.4062 43.8438 32.4062C42.791 32.4062 41.9375 33.2597 41.9375 34.3125C41.9375 35.3653 42.791 36.2188 43.8438 36.2188Z" stroke="black" stroke-width="4" stroke-linecap="round" stroke-linejoin="round"/>
</svg>
