<svg width="51" height="51" viewBox="0 0 51 51" fill="none" xmlns="http://www.w3.org/2000/svg">
<path d="M42.6562 0.71875H8.34375C6.32215 0.720958 4.38399 1.52501 2.9545 2.9545C1.52501 4.38399 0.720958 6.32215 0.71875 8.34375V42.6562C0.720958 44.6778 1.52501 46.616 2.9545 48.0455C4.38399 49.475 6.32215 50.279 8.34375 50.2812H42.6562C44.6778 50.279 46.616 49.475 48.0455 48.0455C49.475 46.616 50.279 44.6778 50.2812 42.6562V8.34375C50.279 6.32215 49.475 4.38399 48.0455 2.9545C46.616 1.52501 44.6778 0.720958 42.6562 0.71875ZM38.397 17.1947L22.3845 36.2572C22.2088 36.4664 21.9903 36.6354 21.7436 36.7528C21.4969 36.8702 21.2279 36.9332 20.9548 36.9375H20.9226C20.6554 36.9374 20.3912 36.8811 20.1472 36.7724C19.9032 36.6636 19.6847 36.5047 19.506 36.3061L12.6435 28.6811C12.4693 28.4962 12.3337 28.2784 12.2448 28.0404C12.1559 27.8024 12.1155 27.549 12.1259 27.2952C12.1363 27.0413 12.1974 26.7921 12.3055 26.5622C12.4136 26.3323 12.5665 26.1263 12.7554 25.9564C12.9442 25.7865 13.1651 25.656 13.4051 25.5726C13.6451 25.4893 13.8994 25.4547 14.1529 25.471C14.4064 25.4874 14.6541 25.5542 14.8815 25.6676C15.1088 25.781 15.3112 25.9387 15.4767 26.1314L20.8726 32.1266L35.478 14.7428C35.8056 14.364 36.2692 14.1294 36.7684 14.0896C37.2676 14.0498 37.7624 14.2081 38.1459 14.5302C38.5293 14.8523 38.7706 15.3124 38.8176 15.811C38.8646 16.3096 38.7135 16.8066 38.397 17.1947Z" fill="black"/>
</svg>
