<svg width="61" height="61" viewBox="0 0 61 61" fill="none" xmlns="http://www.w3.org/2000/svg">
<path d="M53.375 3.8125H43.117L42.9979 3.93164L27.867 19.0625H38.8398L38.959 18.9434L54.066 3.84824C53.8396 3.82441 53.6133 3.8125 53.375 3.8125ZM61 19.0625V11.4375C61 9.63848 60.3686 7.97051 59.332 6.67188L46.9414 19.0625H61ZM35.0393 3.8125H24.0664L23.9473 3.93164L8.80449 19.0625H19.7773L19.8965 18.9434L35.0273 3.8125H35.0393ZM7.625 3.8125C3.41934 3.8125 0 7.23184 0 11.4375V19.0625H0.726758L0.845898 18.9434L15.9768 3.8125H7.625ZM61 22.875H0V49.5625C0 53.7682 3.41934 57.1875 7.625 57.1875H53.375C57.5807 57.1875 61 53.7682 61 49.5625V22.875Z" fill="black"/>
</svg>
