<svg width="61" height="61" viewBox="0 0 61 61" fill="none" xmlns="http://www.w3.org/2000/svg">
<path d="M24.8945 5.8125H30.1989L18.9489 17.0625H13.6356L24.8945 5.8125ZM38.0118 17.0625H32.6954L43.9454 5.8125H49.2707L38.0118 17.0625ZM59 11.4375V17.0625H51.7698L58.8177 10.0146C58.9364 10.4699 59 10.9472 59 11.4375ZM2 11.4375C2 8.33641 4.52391 5.8125 7.625 5.8125H11.1483L2 14.9608V11.4375ZM2 49.5625V24.875H59V49.5625C59 52.6636 56.4761 55.1875 53.375 55.1875H7.625C4.52391 55.1875 2 52.6636 2 49.5625Z" stroke="black" stroke-width="4"/>
</svg>
