<svg width="61" height="61" viewBox="0 0 61 61" fill="none" xmlns="http://www.w3.org/2000/svg">
<path d="M30.5 38.125C34.7112 38.125 38.125 34.7112 38.125 30.5C38.125 26.2888 34.7112 22.875 30.5 22.875C26.2888 22.875 22.875 26.2888 22.875 30.5C22.875 34.7112 26.2888 38.125 30.5 38.125Z" fill="black"/>
<path d="M58.4794 28.427C55.3269 23.5517 51.2369 19.4104 46.6523 16.4497C41.5805 13.171 35.9809 11.4375 30.4599 11.4375C25.3941 11.4375 20.4128 12.8851 15.6543 15.7397C10.8017 18.6503 6.40542 22.9024 2.58697 28.3769C2.1559 28.9956 1.91849 29.7285 1.90491 30.4824C1.89134 31.2364 2.1022 31.9773 2.51072 32.6112C5.65722 37.5353 9.70681 41.6825 14.2199 44.6027C19.3012 47.8945 24.7698 49.5625 30.4599 49.5625C36.025 49.5625 41.6365 47.8433 46.6869 44.592C51.269 41.6408 55.3508 37.484 58.4913 32.5683C58.8858 31.9492 59.0943 31.2299 59.0922 30.4959C59.0901 29.7618 58.8774 29.0438 58.4794 28.427ZM30.5004 41.9375C28.2383 41.9375 26.027 41.2667 24.1461 40.0099C22.2652 38.7532 20.7992 36.9669 19.9336 34.8769C19.0679 32.787 18.8414 30.4873 19.2827 28.2687C19.724 26.05 20.8133 24.012 22.4129 22.4125C24.0125 20.8129 26.0504 19.7236 28.2691 19.2823C30.4877 18.841 32.7874 19.0675 34.8774 19.9331C36.9673 20.7988 38.7536 22.2648 40.0104 24.1457C41.2671 26.0266 41.9379 28.2379 41.9379 30.5C41.9345 33.5323 40.7283 36.4395 38.5841 38.5837C36.4399 40.7279 33.5328 41.934 30.5004 41.9375Z" fill="black"/>
</svg>
