<svg width="61" height="61" viewBox="0 0 61 61" fill="none" xmlns="http://www.w3.org/2000/svg">
<path d="M9.53125 57.1875C9.02568 57.1875 8.54082 56.9867 8.18333 56.6292C7.82584 56.2717 7.625 55.7868 7.625 55.2812V8.11705C7.62514 7.61759 7.7561 7.12688 8.00484 6.69377C8.25359 6.26067 8.61144 5.90027 9.04277 5.64846C10.4844 4.8109 13.389 3.8125 19.0625 3.8125C23.4957 3.8125 28.4544 5.56506 32.8292 7.11031C36.3522 8.35533 39.6798 9.53125 41.9375 9.53125C44.8439 9.52233 47.7194 8.93508 50.3965 7.80371C50.7225 7.6661 51.0775 7.6113 51.4298 7.64419C51.7821 7.67708 52.1208 7.79664 52.4157 7.99222C52.7106 8.1878 52.9526 8.45331 53.1199 8.76508C53.2873 9.07686 53.3749 9.4252 53.375 9.77906V35.9138C53.3745 36.377 53.239 36.83 52.9851 37.2175C52.7312 37.6049 52.3699 37.9099 51.9453 38.0952C50.9076 38.5491 47.1189 40.0312 41.9375 40.0312C39.0614 40.0312 35.4586 39.1806 31.6449 38.2787C27.3583 37.266 22.9262 36.2188 19.0625 36.2188C14.6698 36.2188 12.4216 36.8836 11.4375 37.3041V55.2812C11.4375 55.7868 11.2367 56.2717 10.8792 56.6292C10.5217 56.9867 10.0368 57.1875 9.53125 57.1875Z" fill="black"/>
</svg>
