<svg width="61" height="61" viewBox="0 0 61 61" fill="none" xmlns="http://www.w3.org/2000/svg">
<path d="M9.53125 55.2812V8.11824C9.53184 7.9515 9.57616 7.78784 9.65978 7.64358C9.74341 7.49933 9.86341 7.37954 10.0078 7.29617C10.9383 6.75051 13.4534 5.71875 19.0625 5.71875C26.6875 5.71875 36.3379 11.4375 41.9375 11.4375C45.099 11.4293 48.2271 10.7906 51.1387 9.55865C51.175 9.54353 51.2144 9.5376 51.2535 9.5414C51.2926 9.5452 51.3301 9.5586 51.3628 9.58041C51.3955 9.60223 51.4222 9.63178 51.4407 9.66644C51.4592 9.7011 51.4688 9.73978 51.4688 9.77906V35.9138C51.4685 36.006 51.4414 36.0962 51.3909 36.1734C51.3403 36.2506 51.2685 36.3115 51.184 36.3486C50.2023 36.7787 46.7424 38.125 41.9375 38.125C36.2188 38.125 26.6875 34.3125 19.0625 34.3125C11.4375 34.3125 9.53125 36.2188 9.53125 36.2188" stroke="black" stroke-width="4" stroke-miterlimit="10" stroke-linecap="round"/>
</svg>
