<svg width="61" height="61" viewBox="0 0 61 61" fill="none" xmlns="http://www.w3.org/2000/svg">
<path d="M18.542 21.8747V7.62467C18.542 7.09341 18.7135 6.68363 19.0531 6.34407C19.3926 6.00451 19.8024 5.83301 20.3337 5.83301C20.8649 5.83301 21.2747 6.00451 21.6143 6.34407C21.9538 6.68363 22.1253 7.09341 22.1253 7.62467V21.8747C22.1253 22.8412 22.9088 23.6247 23.8753 23.6247H24.417C25.3835 23.6247 26.167 22.8412 26.167 21.8747V7.62467C26.167 7.09341 26.3385 6.68363 26.6781 6.34407C27.0176 6.00451 27.4274 5.83301 27.9587 5.83301C28.4899 5.83301 28.8997 6.00451 29.2393 6.34407C29.5788 6.68363 29.7503 7.09341 29.7503 7.62467V22.8747C29.7503 25.079 29.0763 26.9851 27.7286 28.6257C26.5175 30.1001 25.0621 31.1275 23.3553 31.7254C22.6587 31.9694 22.1253 32.6238 22.1253 33.4226V53.3747C22.1253 53.9059 21.9538 54.3157 21.6143 54.6553C21.2747 54.9948 20.8649 55.1663 20.3337 55.1663C19.8024 55.1663 19.3926 54.9948 19.0531 54.6553C18.7135 54.3157 18.542 53.9059 18.542 53.3747V33.4226C18.542 32.6238 18.0086 31.9694 17.3121 31.7254C15.6053 31.1275 14.1498 30.1001 12.9387 28.6257C11.5911 26.9851 10.917 25.079 10.917 22.8747V7.62467C10.917 7.09341 11.0885 6.68363 11.4281 6.34407C11.7676 6.00451 12.1774 5.83301 12.7087 5.83301C13.2399 5.83301 13.6497 6.00451 13.9893 6.34407C14.3288 6.68363 14.5003 7.09341 14.5003 7.62467V21.8747C14.5003 22.8412 15.2838 23.6247 16.2503 23.6247H16.792C17.7585 23.6247 18.542 22.8412 18.542 21.8747ZM42.2087 34.833H38.1253C37.5941 34.833 37.1843 34.6615 36.8447 34.3219C36.5052 33.9824 36.3337 33.5726 36.3337 33.0413V17.7913C36.3337 15.025 37.3472 12.3254 39.4439 9.67898C41.5572 7.01165 43.6198 5.83301 45.6232 5.83301C46.1607 5.83301 46.5902 6.0292 46.96 6.46068C47.3481 6.91336 47.542 7.43769 47.542 8.06947V53.3747C47.542 53.9059 47.3705 54.3157 47.0309 54.6553C46.6914 54.9948 46.2816 55.1663 45.7503 55.1663C45.2191 55.1663 44.8093 54.9948 44.4697 54.6553C44.1302 54.3157 43.9587 53.9059 43.9587 53.3747V36.583C43.9587 35.6165 43.1752 34.833 42.2087 34.833Z" stroke="black" stroke-width="1.5"/>
</svg>
