<svg width="61" height="61" viewBox="0 0 61 61" fill="none" xmlns="http://www.w3.org/2000/svg">
<path d="M16.792 22.8747C17.3443 22.8747 17.792 22.427 17.792 21.8747V7.62467C17.792 6.90454 18.0356 6.30089 18.5227 5.81374C19.0099 5.32658 19.6135 5.08301 20.3337 5.08301C21.0538 5.08301 21.6574 5.32658 22.1446 5.81374C22.6317 6.30089 22.8753 6.90454 22.8753 7.62467V21.8747C22.8753 22.427 23.323 22.8747 23.8753 22.8747H24.417C24.9693 22.8747 25.417 22.427 25.417 21.8747V7.62467C25.417 6.90454 25.6606 6.30089 26.1477 5.81374C26.6349 5.32658 27.2385 5.08301 27.9587 5.08301C28.6788 5.08301 29.2824 5.32658 29.7696 5.81374C30.2567 6.30089 30.5003 6.90454 30.5003 7.62467V22.8747C30.5003 25.2469 29.7696 27.3226 28.3081 29.1018C27.0139 30.6773 25.4456 31.7878 23.6032 32.4332C23.1782 32.5821 22.8753 32.9722 22.8753 33.4226V53.3747C22.8753 54.0948 22.6317 54.6985 22.1446 55.1856C21.6574 55.6728 21.0538 55.9163 20.3337 55.9163C19.6135 55.9163 19.0099 55.6728 18.5227 55.1856C18.0356 54.6985 17.792 54.0948 17.792 53.3747V33.4226C17.792 32.9722 17.4891 32.5821 17.0641 32.4332C15.2217 31.7878 13.6534 30.6773 12.3592 29.1018C10.8977 27.3226 10.167 25.2469 10.167 22.8747V7.62467C10.167 6.90454 10.4106 6.30089 10.8977 5.81374C11.3849 5.32658 11.9885 5.08301 12.7087 5.08301C13.4288 5.08301 14.0324 5.32658 14.5196 5.81374C15.0067 6.30089 15.2503 6.90454 15.2503 7.62467V21.8747C15.2503 22.427 15.698 22.8747 16.2503 22.8747H16.792ZM43.2087 36.583C43.2087 36.0307 42.7609 35.583 42.2087 35.583H38.1253C37.4052 35.583 36.8015 35.3394 36.3144 34.8523C35.8272 34.3651 35.5837 33.7615 35.5837 33.0413V17.7913C35.5837 14.8261 36.6745 11.9667 38.8561 9.21322C41.0377 6.45974 43.2934 5.08301 45.6232 5.08301C46.3857 5.08301 47.0212 5.37954 47.5295 5.97259C48.0378 6.56565 48.292 7.2646 48.292 8.06947V53.3747C48.292 54.0948 48.0484 54.6985 47.5613 55.1856C47.0741 55.6728 46.4705 55.9163 45.7503 55.9163C45.0302 55.9163 44.4265 55.6728 43.9394 55.1856C43.4522 54.6985 43.2087 54.0948 43.2087 53.3747V36.583Z" fill="black"/>
</svg>
