<svg width="20" height="17" viewBox="0 0 20 17" fill="none" xmlns="http://www.w3.org/2000/svg">
<path d="M17.6837 1.47751C17.2155 1.00909 16.6596 0.637516 16.0478 0.384C15.4359 0.130485 14.7801 0 14.1179 0C13.4556 0 12.7998 0.130485 12.1879 0.384C11.5761 0.637516 11.0202 1.00909 10.552 1.47751L9.58035 2.44917L8.60868 1.47751C7.66297 0.531789 6.3803 0.000490198 5.04285 0.000490208C3.7054 0.000490218 2.42273 0.531789 1.47702 1.47751C0.531299 2.42322 9.96476e-09 3.70589 0 5.04334C-9.96476e-09 6.38079 0.531299 7.66346 1.47702 8.60917L2.44868 9.58084L9.58035 16.7125L16.712 9.58084L17.6837 8.60917C18.1521 8.14098 18.5237 7.58509 18.7772 6.97325C19.0307 6.36141 19.1612 5.70562 19.1612 5.04334C19.1612 4.38106 19.0307 3.72527 18.7772 3.11343C18.5237 2.50159 18.1521 1.9457 17.6837 1.47751Z" fill="#FFA38F"/>
</svg>
