<svg width="61" height="61" viewBox="0 0 61 61" fill="none" xmlns="http://www.w3.org/2000/svg">
<path d="M5.67109 35.7894L27.1998 55.8885C28.0934 56.7225 29.2729 57.1871 30.5 57.1871C31.7271 57.1871 32.9066 56.7225 33.8002 55.8885L55.3289 35.7894C58.9508 32.4178 61 27.6879 61 22.7435V22.0525C61 13.7246 54.9834 6.62382 46.7746 5.2537C41.3418 4.34823 35.8137 6.12343 31.9297 10.0074L30.5 11.4371L29.0703 10.0074C25.1863 6.12343 19.6582 4.34823 14.2254 5.2537C6.0166 6.62382 0 13.7246 0 22.0525V22.7435C0 27.6879 2.04922 32.4178 5.67109 35.7894Z" fill="black"/>
</svg>
