<svg width="21" height="19" viewBox="0 0 21 19" fill="none" xmlns="http://www.w3.org/2000/svg">
<path d="M18.6837 2.47751C18.2155 2.00909 17.6596 1.63752 17.0478 1.384C16.4359 1.13048 15.7801 1 15.1179 1C14.4556 1 13.7998 1.13048 13.1879 1.384C12.5761 1.63752 12.0202 2.00909 11.552 2.47751L10.5804 3.44917L9.60868 2.47751C8.66297 1.53179 7.3803 1.00049 6.04285 1.00049C4.7054 1.00049 3.42273 1.53179 2.47702 2.47751C1.5313 3.42322 1 4.70589 1 6.04334C1 7.38079 1.5313 8.66346 2.47702 9.60917L3.44868 10.5808L10.5804 17.7125L17.712 10.5808L18.6837 9.60917C19.1521 9.14098 19.5237 8.58509 19.7772 7.97325C20.0307 7.36141 20.1612 6.70562 20.1612 6.04334C20.1612 5.38106 20.0307 4.72527 19.7772 4.11343C19.5237 3.50159 19.1521 2.9457 18.6837 2.47751Z" stroke="#264653" stroke-width="1.25" stroke-linecap="round" stroke-linejoin="round"/>
</svg>
