<svg width="61" height="61" viewBox="0 0 61 61" fill="none" xmlns="http://www.w3.org/2000/svg">
<path d="M31.1626 12.0661C30.9852 11.8965 30.7492 11.8018 30.5038 11.8018C30.2583 11.8018 30.0223 11.8965 29.8449 12.0661L7.91113 33.0194C7.81798 33.1085 7.74388 33.2156 7.69329 33.3342C7.64271 33.4527 7.61671 33.5803 7.61686 33.7092L7.61328 53.3746C7.61328 54.3857 8.01495 55.3554 8.72994 56.0704C9.44492 56.7854 10.4146 57.1871 11.4258 57.1871H22.8752C23.3808 57.1871 23.8656 56.9862 24.2231 56.6288C24.5806 56.2713 24.7814 55.7864 24.7814 55.2808V39.0777C24.7814 38.8249 24.8819 38.5825 25.0606 38.4037C25.2394 38.225 25.4818 38.1246 25.7346 38.1246H35.2658C35.5186 38.1246 35.761 38.225 35.9398 38.4037C36.1185 38.5825 36.2189 38.8249 36.2189 39.0777V55.2808C36.2189 55.7864 36.4198 56.2713 36.7773 56.6288C37.1348 56.9862 37.6196 57.1871 38.1252 57.1871H49.5698C50.581 57.1871 51.5507 56.7854 52.2657 56.0704C52.9807 55.3554 53.3823 54.3857 53.3823 53.3746V33.7092C53.3825 33.5803 53.3565 33.4527 53.3059 33.3342C53.2553 33.2156 53.1812 33.1085 53.0881 33.0194L31.1626 12.0661Z" fill="black"/>
<path d="M58.4874 29.0882L49.5756 20.5625V7.625C49.5756 7.11943 49.3748 6.63457 49.0173 6.27708C48.6598 5.91959 48.175 5.71875 47.6694 5.71875H41.9506C41.4451 5.71875 40.9602 5.91959 40.6027 6.27708C40.2452 6.63457 40.0444 7.11943 40.0444 7.625V11.4375L33.1438 4.83949C32.498 4.1866 31.5378 3.8125 30.5 3.8125C29.4659 3.8125 28.508 4.1866 27.8623 4.84068L2.52106 29.0858C1.78001 29.8006 1.68708 30.9766 2.36141 31.751C2.53075 31.9464 2.73809 32.1054 2.97081 32.2182C3.20354 32.331 3.45679 32.3953 3.71514 32.4071C3.97349 32.4189 4.23154 32.378 4.47359 32.2869C4.71564 32.1959 4.93662 32.0565 5.12309 31.8773L29.8448 8.25406C30.0222 8.08438 30.2582 7.98968 30.5036 7.98968C30.7491 7.98968 30.9851 8.08438 31.1625 8.25406L55.8865 31.8773C56.2507 32.2265 56.7385 32.4171 57.2431 32.4073C57.7476 32.3975 58.2276 32.188 58.5779 31.8248C59.3094 31.0671 59.2487 29.8161 58.4874 29.0882Z" fill="black"/>
</svg>
