<svg width="61" height="61" viewBox="0 0 61 61" fill="none" xmlns="http://www.w3.org/2000/svg">
<path d="M9.53125 25.2578V53.375C9.53125 53.8806 9.73209 54.3654 10.0896 54.7229C10.4471 55.0804 10.9319 55.2812 11.4375 55.2812H22.875V39.0781C22.875 38.3198 23.1763 37.5925 23.7125 37.0562C24.2487 36.52 24.976 36.2188 25.7344 36.2188H35.2656C36.024 36.2188 36.7513 36.52 37.2875 37.0562C37.8237 37.5925 38.125 38.3198 38.125 39.0781V55.2812H49.5625C50.0681 55.2812 50.5529 55.0804 50.9104 54.7229C51.2679 54.3654 51.4688 53.8806 51.4688 53.375V25.2578" stroke="black" stroke-width="3" stroke-linecap="round" stroke-linejoin="round"/>
<path d="M57.1875 30.4999L31.7974 6.19518C31.2017 5.56612 29.809 5.55897 29.2026 6.19518L3.8125 30.4999M47.6562 21.326V7.62487H41.9375V15.8456" stroke="black" stroke-width="3" stroke-linecap="round" stroke-linejoin="round"/>
</svg>
