<svg width="61" height="61" viewBox="0 0 61 61" fill="none" xmlns="http://www.w3.org/2000/svg">
<g clip-path="url(#clip0_549_2388)">
<path d="M60.979 30.4404C60.979 32.585 59.3904 34.2648 57.5901 34.2648H54.2012L54.2753 53.3512C54.2753 53.6729 54.2541 53.9945 54.2224 54.3162V56.2463C54.2224 58.8793 52.3267 61.0119 49.9863 61.0119H48.2918C48.1753 61.0119 48.0588 61.0119 47.9423 61C47.7941 61.0119 47.6458 61.0119 47.4975 61.0119L44.0557 61H41.514C39.1736 61 37.2779 58.8674 37.2779 56.2344V53.375V45.75C37.2779 43.6412 35.7635 41.9375 33.889 41.9375H27.1113C25.2368 41.9375 23.7224 43.6412 23.7224 45.75V53.375V56.2344C23.7224 58.8674 21.8267 61 19.4863 61H16.9446H13.5663C13.4074 61 13.2486 60.9881 13.0897 60.9762C12.9627 60.9881 12.8356 61 12.7085 61H11.014C8.67359 61 6.77793 58.8674 6.77793 56.2344V42.8906C6.77793 42.7834 6.77793 42.6643 6.78852 42.557V34.2529H3.39963C1.49338 34.2529 0.0107422 32.585 0.0107422 30.4285C0.0107422 29.3562 0.328451 28.4031 1.06977 27.5691L28.2127 0.953125C28.954 0.119141 29.8012 0 30.5425 0C31.2838 0 32.1311 0.238281 32.7665 0.833984L59.814 27.5811C60.6613 28.415 61.0849 29.3682 60.979 30.4404Z" fill="black"/>
</g>
<defs>
<clipPath id="clip0_549_2388">
<rect width="61" height="61" fill="white"/>
</clipPath>
</defs>
</svg>
