<svg width="61" height="61" viewBox="0 0 61 61" fill="none" xmlns="http://www.w3.org/2000/svg">
<g clip-path="url(#clip0_549_2390)">
<path d="M59.4862 30.293L59.479 30.3665V30.4404C59.479 31.9021 58.4236 32.7648 57.5901 32.7648H54.2012H52.6954L52.7012 34.2707L52.7753 53.3512C52.7753 53.3521 52.7753 53.353 52.7753 53.3539C52.7752 53.6102 52.7582 53.8791 52.7296 54.1688L52.7224 54.2423V54.3162V56.2463C52.7224 58.2218 51.3371 59.5119 49.9863 59.5119H48.2918C48.1627 59.5119 48.1227 59.5106 48.095 59.5078L47.9587 59.4939L47.8222 59.5048C47.7442 59.5111 47.6565 59.5119 47.4994 59.5119C47.4988 59.5119 47.4982 59.5119 47.4975 59.5119L44.0609 59.5H44.0557H41.514C40.1632 59.5 38.7779 58.2099 38.7779 56.2344V53.375V45.75C38.7779 42.9838 36.7532 40.4375 33.889 40.4375H27.1113C24.2471 40.4375 22.2224 42.9838 22.2224 45.75V53.375V56.2344C22.2224 58.2099 20.8371 59.5 19.4863 59.5H16.9446H13.5663C13.473 59.5 13.3703 59.493 13.2019 59.4804L13.0757 59.4709L12.9497 59.4827C12.8107 59.4958 12.7536 59.5 12.7085 59.5H11.014C9.66323 59.5 8.27793 58.2099 8.27793 56.2344V42.8906C8.27793 42.8343 8.278 42.7951 8.27884 42.7589C8.27924 42.742 8.27974 42.729 8.28027 42.7192L8.28095 42.7082C8.28114 42.7056 8.28126 42.7044 8.28126 42.7045L8.28852 42.6309V42.557V34.2529V32.7529H6.78852H3.39963C2.48588 32.7529 1.51074 31.9307 1.51074 30.4285C1.51074 29.7031 1.70806 29.1246 2.16023 28.6007L29.2629 2.02413L29.2996 1.98812L29.3338 1.94967C29.5271 1.73215 29.7014 1.63766 29.8572 1.58506C30.0332 1.52567 30.2455 1.5 30.5425 1.5C30.9887 1.5 31.4318 1.64602 31.7287 1.91732L58.7593 28.6476L58.7618 28.65C59.3644 29.2433 59.5378 29.7712 59.4862 30.293Z" stroke="black" stroke-width="3"/>
</g>
<defs>
<clipPath id="clip0_549_2390">
<rect width="61" height="61" fill="white"/>
</clipPath>
</defs>
</svg>
