<svg width="34" height="42" viewBox="0 0 34 42" fill="none" xmlns="http://www.w3.org/2000/svg">
<path d="M8.47257 19.3365C8.61483 19.2383 8.77343 19.1699 8.9393 19.1354C9.10517 19.1008 9.27507 19.1008 9.43929 19.1352C9.60351 19.1697 9.75884 19.238 9.89639 19.3362C10.034 19.4344 10.151 19.5606 10.241 19.7076C14.5701 26.7837 19.4601 31.6377 25.776 35.0418C27.3242 32.6395 28.1072 29.7715 28.0065 26.7632C27.873 22.7718 26.2368 18.9246 23.2768 15.6385C20.6345 12.705 17.6047 11.3715 14.6735 10.0819C10.9755 8.45477 5.41394 7.42321 2.87805 2.67722C2.59504 2.15161 1.12102 0.0335104 0.581868 0.0508691C-0.0352134 0.0744557 0.329937 3.09179 0.212227 3.58015C0.0924886 4.06802 0.257188 9.58011 0.136786 15.396C-0.0577294 24.7394 1.98218 29.9874 3.72798 32.7454C5.98425 36.3067 9.45069 38.818 13.2762 39.7484C13.997 39.925 14.7307 40.0443 15.4713 40.1052C18.8332 40.3741 21.9445 39.3116 24.0706 37.1818C17.5922 33.5845 12.544 28.5123 8.07131 21.2058C7.98119 21.0586 7.92007 20.8934 7.89147 20.7197C7.86286 20.546 7.86732 20.3672 7.90459 20.1935C7.94187 20.0199 8.01123 19.8548 8.10869 19.7077C8.20615 19.5607 8.32981 19.4345 8.47257 19.3365ZM29.3828 36.7701C28.1288 36.2402 26.9288 35.6635 25.776 35.0418C25.3453 35.7106 24.8591 36.3413 24.323 36.9211C24.2415 37.0098 24.1562 37.0967 24.0706 37.1818C25.4685 37.9557 26.9057 38.6531 28.3752 39.2709C28.5306 39.3407 32.5053 41.1016 32.6758 41.102C32.8463 41.1024 33.0161 41.067 33.1751 40.998C33.3341 40.9289 33.4792 40.8275 33.6019 40.6997C33.7245 40.572 33.8223 40.4204 33.8894 40.254C33.9565 40.0875 33.9917 39.9095 33.9928 39.7304C33.9939 39.5512 33.9609 39.3746 33.8958 39.2108C33.8307 39.0469 33.7348 38.8993 33.6137 38.7764C33.4925 38.6535 29.541 36.8329 29.3828 36.7701Z" fill="black"/>
</svg>
