<svg width="34" height="42" viewBox="0 0 34 42" fill="none" xmlns="http://www.w3.org/2000/svg">
<path d="M7.64487 21.4669C12.0169 28.6089 16.9504 33.657 23.2303 37.2807C21.2443 38.9934 18.4941 39.8453 15.5114 39.6068C14.7974 39.548 14.09 39.433 13.3952 39.2628L13.3943 39.2626C9.70093 38.3643 6.34089 35.9352 4.15046 32.478C2.46698 29.8185 0.44379 24.6717 0.636678 15.4064L0.636679 15.4063C0.697027 12.4913 0.685906 9.65356 0.674749 7.48749C0.674164 7.37398 0.67358 7.26235 0.673005 7.15268C0.668092 6.2144 0.663928 5.41936 0.66685 4.81676C0.668483 4.48 0.672318 4.20784 0.679249 4.0066C0.682722 3.90577 0.686841 3.82685 0.691427 3.7686C0.695596 3.71565 0.699063 3.6954 0.69883 3.69536C0.698769 3.69535 0.698449 3.69675 0.69782 3.69933L0.698307 3.69731C0.727349 3.57681 0.734065 3.42565 0.736503 3.29887C0.739205 3.15836 0.736774 2.99143 0.732735 2.81457C0.73055 2.71892 0.727893 2.61981 0.725173 2.51832C0.717622 2.23662 0.709581 1.93662 0.709783 1.64156C0.710031 1.28003 0.723113 0.958373 0.758134 0.718744C0.767449 0.727225 0.776977 0.736018 0.786717 0.74513C0.979175 0.925176 1.20533 1.18303 1.43456 1.4715C1.89511 2.05106 2.31462 2.68575 2.43746 2.91362C3.77455 5.41552 5.90251 6.92035 8.12141 7.99883C9.22987 8.53759 10.3707 8.9745 11.4536 9.37486C11.6304 9.44023 11.8053 9.50451 11.9782 9.56805C12.8725 9.89669 13.7124 10.2053 14.4721 10.5396L14.4721 10.5396C17.4075 11.831 20.3431 13.1286 22.9053 15.9731L23.2768 15.6385L22.9053 15.9732C25.7956 19.1818 27.3777 22.9192 27.5068 26.78L28.0065 26.7632L27.5068 26.78C27.5987 29.5266 26.9293 32.1454 25.6005 34.376C19.5735 31.0326 14.8632 26.3048 10.6675 19.4467L10.6675 19.4466C10.5432 19.2435 10.3802 19.0673 10.1869 18.9293C9.99354 18.7912 9.77434 18.6947 9.54198 18.6459C9.30962 18.5971 9.07006 18.5974 8.83738 18.6459C8.60525 18.6942 8.38531 18.7893 8.18958 18.9243C7.9929 19.0593 7.82414 19.232 7.69191 19.4315C7.55969 19.631 7.46603 19.8543 7.41573 20.0886C7.36543 20.3229 7.35924 20.5649 7.39811 20.801C7.437 21.0371 7.52037 21.2635 7.64486 21.4669L8.07131 21.2058L7.64487 21.4669ZM0.523733 0.542051C0.521707 0.541364 0.520664 0.54091 0.520649 0.540854C0.520635 0.540799 0.521648 0.541142 0.523733 0.542051ZM3.72798 32.7454C5.98425 36.3067 9.45069 38.818 13.2762 39.7484L3.72798 32.7454ZM24.8787 37.0523C25.2593 36.6233 25.614 36.1697 25.9408 35.6959C26.9838 36.2439 28.0647 36.7559 29.1882 37.2307L29.1881 37.2308L29.1984 37.2349C29.1963 37.234 29.2099 37.2398 29.2512 37.2582C29.2875 37.2744 29.3371 37.2968 29.3984 37.3246C29.5208 37.3802 29.6878 37.4566 29.8847 37.5471C30.2784 37.7281 30.79 37.9649 31.3003 38.2036C31.811 38.4425 32.3188 38.6824 32.7057 38.8698C32.8996 38.9638 33.0603 39.0432 33.175 39.1021C33.2253 39.128 33.2637 39.1484 33.2909 39.1634C33.3489 39.2303 33.3966 39.3085 33.4312 39.3954C33.4721 39.4985 33.4935 39.6114 33.4928 39.7273C33.4921 39.8433 33.4693 39.9589 33.4257 40.067C33.3821 40.1751 33.3191 40.2724 33.2412 40.3535C33.1634 40.4345 33.0729 40.4972 32.9759 40.5394C32.8979 40.5732 32.8169 40.5933 32.7359 40.5997C32.709 40.5902 32.6733 40.5769 32.6283 40.5596C32.5093 40.5137 32.3443 40.4466 32.146 40.364C31.7505 40.1992 31.2355 39.9781 30.7189 39.7538C29.6857 39.3054 28.6553 38.8486 28.5801 38.8148L28.5802 38.8147L28.569 38.81C27.3136 38.2822 26.082 37.6957 24.8787 37.0523Z" stroke="black"/>
</svg>
