<svg width="34" height="42" viewBox="0 0 34 42" fill="none" xmlns="http://www.w3.org/2000/svg">
<path d="M7.21843 21.7279C11.4797 28.6889 16.2848 33.6986 22.3487 37.3418C20.5301 38.6642 18.1448 39.3153 15.5532 39.1085C14.8652 39.052 14.1836 38.9412 13.5142 38.7772L13.5125 38.7768C9.95104 37.9105 6.69731 35.5636 4.57271 32.2102C2.9516 29.649 0.945317 24.6035 1.13657 15.4168L1.13657 15.4167C1.19707 12.4945 1.1859 9.65106 1.17474 7.48491C1.17416 7.37152 1.17357 7.26004 1.173 7.15056C1.16808 6.21138 1.16394 5.41909 1.16684 4.81919C1.16847 4.48377 1.17228 4.21752 1.17895 4.02382C1.18484 3.85286 1.19209 3.79063 1.19054 3.79041C1.18989 3.79032 1.18776 3.80078 1.18341 3.81851L1.18439 3.81447C1.22776 3.63453 1.23402 3.43276 1.23641 3.30848C1.23933 3.15675 1.23666 2.98092 1.2326 2.80315C1.23033 2.70346 1.2276 2.60181 1.22484 2.49882C1.22047 2.33559 1.216 2.16898 1.21308 2.00135C1.59053 2.49775 1.90605 2.9818 1.99695 3.15015C3.40318 5.78087 5.63468 7.3461 7.90284 8.44853C9.03495 8.99878 10.1954 9.44279 11.2802 9.84384C11.4594 9.91009 11.6359 9.97497 11.8097 10.0388C12.7042 10.3676 13.5266 10.6698 14.2707 10.9972L14.2708 10.9973C17.2104 12.2905 20.0517 13.5522 22.5338 16.3078L22.5338 16.3078C25.3543 19.4389 26.8823 23.0666 27.0071 26.7967C27.0901 29.278 26.5302 31.6454 25.4126 33.6963C19.6778 30.4162 15.1513 25.8176 11.094 19.1857L11.094 19.1857C10.9353 18.9264 10.7265 18.7001 10.4774 18.5223C10.2282 18.3444 9.94516 18.2196 9.64466 18.1566C9.34417 18.0935 9.03495 18.094 8.73546 18.1564C8.43709 18.2185 8.1558 18.3404 7.90659 18.5121C7.65598 18.6842 7.44213 18.9033 7.27513 19.1553C7.10816 19.4073 6.99019 19.6887 6.92687 19.9837C6.86354 20.2787 6.85561 20.5838 6.90476 20.8822C6.95392 21.1807 7.05954 21.4684 7.21841 21.7279L7.21843 21.7279ZM0.301005 0.989787C0.286645 0.98234 0.284828 0.979676 0.29705 0.987249C0.298165 0.98794 0.299483 0.988783 0.301005 0.989787ZM25.6636 36.9C25.8122 36.7168 25.9564 36.53 26.0961 36.3398C27.031 36.8189 27.9958 37.2696 28.9935 37.6913L29.0038 37.6956L29.0141 37.6997C29.0101 37.6981 29.0166 37.701 29.0359 37.7096C29.062 37.7213 29.1119 37.7437 29.1917 37.7799C29.3131 37.835 29.4794 37.911 29.6758 38.0014C30.0686 38.182 30.5792 38.4183 31.0885 38.6565C31.5985 38.8951 32.1039 39.1338 32.4877 39.3198C32.6805 39.4132 32.837 39.4906 32.9464 39.5468C32.9486 39.5479 32.9508 39.5491 32.9529 39.5502C32.9578 39.5596 32.9623 39.5696 32.9665 39.5801C32.9834 39.6225 32.9931 39.6715 32.9928 39.7243C32.9925 39.7771 32.982 39.8303 32.962 39.88C32.942 39.9297 32.9136 39.9727 32.8805 40.0072C32.8476 40.0415 32.8116 40.0656 32.7767 40.0808C32.7767 40.0808 32.7766 40.0808 32.7766 40.0808C32.6663 40.0377 32.5176 39.9771 32.3383 39.9025C31.9462 39.7391 31.434 39.5192 30.918 39.2952C29.8861 38.8473 28.8577 38.3914 28.785 38.3587L28.7739 38.3538L28.7627 38.3491C27.7119 37.9073 26.678 37.4239 25.6636 36.9Z" stroke="black" stroke-width="2"/>
</svg>
