<svg width="301" height="64" viewBox="0 0 301 64" fill="none" xmlns="http://www.w3.org/2000/svg">
<path d="M12.7487 50.984C11.6441 50.984 10.7487 50.0886 10.7487 48.984V8.184C10.7487 7.07943 11.6441 6.184 12.7487 6.184H18.1955C18.8963 6.184 19.546 6.55084 19.908 7.15094L37.2181 35.8461C37.736 36.7048 37.1177 37.8 36.1148 37.8C35.1163 37.8 34.4973 36.7132 35.0067 35.8544L52.0236 7.16373C52.3838 6.55638 53.0377 6.184 53.7438 6.184H59.1224C60.2248 6.184 61.1193 7.07596 61.1224 8.17829L61.239 48.9783C61.2421 50.0851 60.3458 50.984 59.239 50.984H53.5124C52.4095 50.984 51.5148 50.0912 51.5124 48.9883L51.4541 21.7463C51.4533 21.3874 51.7441 21.096 52.103 21.096C52.6065 21.096 52.9182 21.6444 52.6606 22.077L38.8503 45.2712C38.4897 45.8769 37.8368 46.248 37.1319 46.248H34.7212C34.023 46.248 33.3752 45.8838 33.0124 45.2872L19.0244 22.2861C18.7071 21.7642 19.0827 21.096 19.6936 21.096C20.1261 21.096 20.4767 21.4466 20.4767 21.8792V48.984C20.4767 50.0886 19.5813 50.984 18.4767 50.984H12.7487Z" fill="#1E3A5F"/>
<path d="M84.9937 51.496C81.3244 51.496 78.0604 50.728 75.2017 49.192C72.3857 47.656 70.1457 45.5653 68.4817 42.92C66.8604 40.232 66.0497 37.1813 66.0497 33.768C66.0497 30.312 66.8604 27.2613 68.4817 24.616C70.1457 21.928 72.3857 19.8373 75.2017 18.344C78.0604 16.808 81.3244 16.04 84.9937 16.04C88.6204 16.04 91.863 16.808 94.7217 18.344C97.5804 19.8373 99.8204 21.9067 101.442 24.552C103.063 27.1973 103.874 30.2693 103.874 33.768C103.874 37.1813 103.063 40.232 101.442 42.92C99.8204 45.5653 97.5804 47.656 94.7217 49.192C91.863 50.728 88.6204 51.496 84.9937 51.496ZM84.9937 43.304C86.6577 43.304 88.151 42.92 89.4737 42.152C90.7964 41.384 91.8417 40.296 92.6097 38.888C93.3777 37.4373 93.7617 35.7307 93.7617 33.768C93.7617 31.7627 93.3777 30.056 92.6097 28.648C91.8417 27.24 90.7964 26.152 89.4737 25.384C88.151 24.616 86.6577 24.232 84.9937 24.232C83.3297 24.232 81.8364 24.616 80.5137 25.384C79.191 26.152 78.1244 27.24 77.3137 28.648C76.5457 30.056 76.1617 31.7627 76.1617 33.768C76.1617 35.7307 76.5457 37.4373 77.3137 38.888C78.1244 40.296 79.191 41.384 80.5137 42.152C81.8364 42.92 83.3297 43.304 84.9937 43.304Z" fill="#1E3A5F"/>
<path d="M122.067 51.496C118.014 51.496 114.857 50.472 112.595 48.424C110.334 46.3333 109.203 43.24 109.203 39.144V10.936C109.203 9.83144 110.099 8.93601 111.203 8.93601H117.187C118.292 8.93601 119.187 9.83144 119.187 10.936V39.016C119.187 40.4667 119.571 41.5973 120.339 42.408C121.107 43.176 122.153 43.56 123.475 43.56C124.043 43.56 124.58 43.5048 125.087 43.3945C126.396 43.1097 127.988 43.5387 128.466 44.7899L129.642 47.871C129.968 48.7238 129.681 49.706 128.862 50.1094C128.146 50.4623 127.353 50.7538 126.483 50.984C125.075 51.3253 123.603 51.496 122.067 51.496ZM105.891 24.232C104.787 24.232 103.891 23.3366 103.891 22.232V18.552C103.891 17.4474 104.787 16.552 105.891 16.552H125.763C126.868 16.552 127.763 17.4474 127.763 18.552V22.232C127.763 23.3366 126.868 24.232 125.763 24.232H105.891Z" fill="#1E3A5F"/>
<path d="M135.24 50.984C134.135 50.984 133.24 50.0886 133.24 48.984V18.552C133.24 17.4474 134.135 16.552 135.24 16.552H141.224C142.328 16.552 143.224 17.4474 143.224 18.552V48.984C143.224 50.0886 142.328 50.984 141.224 50.984H135.24ZM138.232 11.752C136.397 11.752 134.904 11.2187 133.752 10.152C132.6 9.08534 132.024 7.76267 132.024 6.184C132.024 4.60534 132.6 3.28267 133.752 2.21601C134.904 1.14934 136.397 0.616003 138.232 0.616003C140.066 0.616003 141.56 1.128 142.712 2.15201C143.864 3.13334 144.44 4.41334 144.44 5.99201C144.44 7.65601 143.864 9.04267 142.712 10.152C141.602 11.2187 140.109 11.752 138.232 11.752Z" fill="#1E3A5F"/>
<path d="M160.603 50.984C159.798 50.984 159.071 50.501 158.759 49.7586L145.975 19.3266C145.422 18.0085 146.389 16.552 147.819 16.552H153.767C154.581 16.552 155.314 17.0454 155.62 17.7996L166.189 43.8286C166.646 44.954 165.818 46.184 164.604 46.184C163.38 46.184 162.551 44.9363 163.026 43.8082L173.99 17.7757C174.303 17.0342 175.029 16.552 175.834 16.552H181.091C182.522 16.552 183.49 18.0111 182.934 19.3295L170.094 49.7615C169.781 50.5024 169.055 50.984 168.251 50.984H160.603Z" fill="#1E3A5F"/>
<path d="M207.365 50.984C206.26 50.984 205.365 50.0886 205.365 48.984V44.68C205.365 44.4056 205.308 44.1342 205.199 43.8825L204.891 43.1735C204.781 42.9219 204.725 42.6504 204.725 42.376V30.76C204.725 28.6267 204.063 26.9627 202.741 25.768C201.461 24.5733 199.477 23.976 196.789 23.976C194.954 23.976 193.141 24.2747 191.349 24.872C190.474 25.1494 189.663 25.48 188.917 25.8641C187.795 26.4407 186.332 26.1308 185.756 25.0093L184.08 21.7471C183.624 20.86 183.887 19.7627 184.754 19.2702C186.308 18.3873 188.08 17.6733 190.069 17.128C192.714 16.4027 195.402 16.04 198.133 16.04C203.381 16.04 207.455 17.2773 210.357 19.752C213.258 22.2267 214.709 26.088 214.709 31.336V48.984C214.709 50.0886 213.813 50.984 212.709 50.984H207.365ZM194.869 51.496C192.181 51.496 189.877 51.048 187.957 50.152C186.037 49.2133 184.565 47.9547 183.541 46.376C182.517 44.7973 182.005 43.0267 182.005 41.064C182.005 39.016 182.495 37.224 183.477 35.688C184.501 34.152 186.101 32.9573 188.277 32.104C190.453 31.208 193.29 30.76 196.789 30.76H203.941C205.045 30.76 205.941 31.6554 205.941 32.76V34.584C205.941 35.6886 205.045 36.584 203.941 36.584H197.877C195.53 36.584 193.909 36.968 193.013 37.736C192.159 38.504 191.733 39.464 191.733 40.616C191.733 41.896 192.223 42.92 193.205 43.688C194.229 44.4133 195.615 44.776 197.365 44.776C199.029 44.776 200.522 44.392 201.845 43.624C201.928 43.5729 202.01 43.5203 202.091 43.4662C203.309 42.6493 205.633 42.8302 206.097 44.2215C206.203 44.54 206.208 44.8859 206.088 45.1997C205.335 47.1792 204.069 48.702 202.293 49.768C200.373 50.92 197.898 51.496 194.869 51.496Z" fill="#1E3A5F"/>
<path d="M241.537 51.496C238.635 51.496 236.097 50.856 233.921 49.576C231.745 48.296 230.038 46.3547 228.801 43.752C227.606 41.1067 227.009 37.7787 227.009 33.768C227.009 29.7147 227.585 26.3867 228.737 23.784C229.889 21.1813 231.553 19.24 233.729 17.96C235.905 16.68 238.507 16.04 241.537 16.04C244.779 16.04 247.681 16.7867 250.241 18.28C252.843 19.7307 254.891 21.7787 256.385 24.424C257.921 27.0693 258.689 30.184 258.689 33.768C258.689 37.3947 257.921 40.5307 256.385 43.176C254.891 45.8213 252.843 47.8693 250.241 49.32C247.681 50.7707 244.779 51.496 241.537 51.496ZM223.185 63.4C222.08 63.4 221.185 62.5046 221.185 61.4V18.552C221.185 17.4474 222.08 16.552 223.185 16.552H228.721C229.825 16.552 230.721 17.4474 230.721 18.552V23.592L230.529 33.832L231.169 44.008V61.4C231.169 62.5046 230.273 63.4 229.169 63.4H223.185ZM239.809 43.304C241.473 43.304 242.945 42.92 244.225 42.152C245.547 41.384 246.593 40.296 247.361 38.888C248.171 37.4373 248.577 35.7307 248.577 33.768C248.577 31.7627 248.171 30.056 247.361 28.648C246.593 27.24 245.547 26.152 244.225 25.384C242.945 24.616 241.473 24.232 239.809 24.232C238.145 24.232 236.651 24.616 235.329 25.384C234.006 26.152 232.961 27.24 232.193 28.648C231.425 30.056 231.041 31.7627 231.041 33.768C231.041 35.7307 231.425 37.4373 232.193 38.888C232.961 40.296 234.006 41.384 235.329 42.152C236.651 42.92 238.145 43.304 239.809 43.304Z" fill="#1E3A5F"/>
<path d="M283.164 51.496C280.263 51.496 277.724 50.856 275.548 49.576C273.372 48.296 271.666 46.3547 270.428 43.752C269.234 41.1067 268.636 37.7787 268.636 33.768C268.636 29.7147 269.212 26.3867 270.364 23.784C271.516 21.1813 273.18 19.24 275.356 17.96C277.532 16.68 280.135 16.04 283.164 16.04C286.407 16.04 289.308 16.7867 291.868 18.28C294.471 19.7307 296.519 21.7787 298.012 24.424C299.548 27.0693 300.316 30.184 300.316 33.768C300.316 37.3947 299.548 40.5307 298.012 43.176C296.519 45.8213 294.471 47.8693 291.868 49.32C289.308 50.7707 286.407 51.496 283.164 51.496ZM264.812 63.4C263.708 63.4 262.812 62.5046 262.812 61.4V18.552C262.812 17.4474 263.708 16.552 264.812 16.552H270.348C271.453 16.552 272.348 17.4474 272.348 18.552V23.592L272.156 33.832L272.796 44.008V61.4C272.796 62.5046 271.901 63.4 270.796 63.4H264.812ZM281.436 43.304C283.1 43.304 284.572 42.92 285.852 42.152C287.175 41.384 288.22 40.296 288.988 38.888C289.799 37.4373 290.204 35.7307 290.204 33.768C290.204 31.7627 289.799 30.056 288.988 28.648C288.22 27.24 287.175 26.152 285.852 25.384C284.572 24.616 283.1 24.232 281.436 24.232C279.772 24.232 278.279 24.616 276.956 25.384C275.634 26.152 274.588 27.24 273.82 28.648C273.052 30.056 272.668 31.7627 272.668 33.768C272.668 35.7307 273.052 37.4373 273.82 38.888C274.588 40.296 275.634 41.384 276.956 42.152C278.279 42.92 279.772 43.304 281.436 43.304Z" fill="#1E3A5F"/>
<path d="M2.63406 6.08476C2.67894 6.05375 2.72898 6.03219 2.78131 6.02129C2.83365 6.01039 2.88725 6.01038 2.93906 6.02125C2.99088 6.03212 3.03988 6.05367 3.08328 6.08465C3.12668 6.11564 3.16363 6.15546 3.192 6.20184C4.55785 8.43438 6.10069 9.96585 8.09338 11.0399C8.58184 10.2819 8.82889 9.37705 8.79712 8.42793C8.75499 7.1686 8.23877 5.95478 7.30487 4.91801C6.47121 3.99248 5.51529 3.57175 4.59047 3.16488C3.42375 2.65151 1.66904 2.32605 0.868957 0.82866C0.779667 0.662827 0.314605 -0.0054433 0.144501 3.34691e-05C-0.0501914 0.00747517 0.0650153 0.959458 0.0278772 1.11354C-0.00990079 1.26747 0.0420628 3.00656 0.00407526 4.84149C-0.0572954 7.7894 0.586308 9.44517 1.13712 10.3153C1.84898 11.4389 2.94266 12.2313 4.14962 12.5248C4.37703 12.5805 4.60853 12.6182 4.84218 12.6374C5.90288 12.7222 6.88453 12.387 7.55532 11.715C5.51135 10.5801 3.91862 8.97975 2.50746 6.67453C2.47902 6.62808 2.45974 6.57596 2.45072 6.52116C2.44169 6.46635 2.4431 6.40994 2.45486 6.35515C2.46662 6.30036 2.4885 6.24828 2.51925 6.20188C2.55 6.15548 2.58902 6.11568 2.63406 6.08476ZM9.23134 11.5851C8.83569 11.418 8.45711 11.236 8.09338 11.0399C7.95748 11.2509 7.80408 11.4498 7.63496 11.6328C7.60923 11.6608 7.58233 11.6882 7.55532 11.715C7.99635 11.9592 8.44981 12.1792 8.91343 12.3742C8.96246 12.3962 10.2165 12.9518 10.2703 12.9519C10.3241 12.952 10.3777 12.9408 10.4278 12.9191C10.478 12.8973 10.5238 12.8653 10.5625 12.825C10.6012 12.7847 10.632 12.7368 10.6532 12.6843C10.6744 12.6318 10.6855 12.5756 10.6858 12.5191C10.6862 12.4626 10.6758 12.4069 10.6552 12.3552C10.6347 12.3035 10.6044 12.2569 10.5662 12.2181C10.528 12.1794 9.28126 11.6049 9.23134 11.5851Z" fill="#1E3A5F"/>
<path d="M7.016 14.7089C7.00603 14.6977 6.99845 14.6848 6.99371 14.6709C6.98898 14.6569 6.98717 14.6423 6.98839 14.6278C6.98961 14.6133 6.99383 14.5992 7.00083 14.5863C7.00782 14.5734 7.01744 14.562 7.02915 14.5527C7.59242 14.1046 7.95839 13.6319 8.18434 13.0519C7.96101 12.9441 7.70572 12.9072 7.44775 12.9478C7.10546 13.0018 6.79158 13.1836 6.5401 13.4735C6.3156 13.7322 6.233 14.0073 6.15313 14.2734C6.05235 14.6091 6.02268 15.099 5.64097 15.3679C5.59872 15.3978 5.43201 15.5473 5.43924 15.5935C5.44783 15.6464 5.70377 15.5829 5.74708 15.5878C5.79036 15.5929 6.26326 15.5201 6.76534 15.4686C7.57198 15.386 8.00219 15.1545 8.22111 14.9748C8.50377 14.7427 8.68315 14.4175 8.72258 14.0782C8.73012 14.0142 8.73258 13.9498 8.72995 13.8854C8.71735 13.593 8.59276 13.3364 8.38676 13.176C8.1459 13.7721 7.76282 14.2607 7.18124 14.7236C7.16952 14.7329 7.15594 14.7399 7.14129 14.7442C7.12663 14.7486 7.11119 14.7501 7.09584 14.7487C7.08049 14.7473 7.06554 14.7431 7.05184 14.7363C7.03814 14.7295 7.02596 14.7202 7.016 14.7089ZM8.2948 12.7229C8.26251 12.8365 8.22561 12.946 8.18434 13.0519C8.24651 13.0818 8.30599 13.117 8.36162 13.157C8.37012 13.1631 8.37852 13.1695 8.38676 13.176C8.43853 13.0474 8.48329 12.9162 8.52086 12.7831C8.52522 12.7689 8.63457 12.408 8.63279 12.3933C8.63101 12.3786 8.62616 12.3643 8.61852 12.3514C8.61088 12.3384 8.60061 12.327 8.5883 12.3178C8.576 12.3086 8.56191 12.3018 8.54686 12.2978C8.53182 12.2938 8.51611 12.2926 8.50068 12.2944C8.48524 12.2963 8.47038 12.301 8.45696 12.3083C8.44355 12.3157 8.43185 12.3255 8.42256 12.3372C8.41326 12.349 8.29852 12.7086 8.2948 12.7229Z" fill="#1E3A5F"/>
</svg>
