<svg width="59" height="43" viewBox="0 0 59 43" fill="none" xmlns="http://www.w3.org/2000/svg">
<path d="M54.7374 41.4687H54.7426C55.0933 41.4706 55.4398 41.392 55.7555 41.2392C56.0696 41.0872 56.3449 40.8656 56.5606 40.5913C56.7974 40.2806 56.9613 39.9207 57.0403 39.5382C57.1196 39.1538 57.1111 38.7565 57.0154 38.3759L57.0139 38.3699C56.0807 34.559 53.7594 31.4151 50.2677 29.2679L50.2674 29.2678C47.1441 27.346 43.2619 26.3125 39.0311 26.3125C34.8895 26.3125 30.8979 27.3914 27.7914 29.315L54.7374 41.4687ZM54.7374 41.4687L23.326 41.4687L23.3206 41.4688M54.7374 41.4687L23.3206 41.4688M23.3206 41.4688C22.9686 41.4706 22.6208 41.3917 22.304 41.2381C21.9888 41.0852 21.7127 40.8624 21.4966 40.5866C21.2605 40.2758 21.0973 39.9157 21.0193 39.5332C20.9409 39.1489 20.9505 38.7518 21.0473 38.3717L21.0486 38.3665M23.3206 41.4688L21.0486 38.3665M21.0486 38.3665C21.9855 34.6045 24.303 31.4763 27.7913 29.3152L21.0486 38.3665ZM30.2591 11.0834L30.2591 11.0833C30.0693 8.39787 30.8887 5.98157 32.5119 4.23903C34.1386 2.49274 36.4259 1.53125 39.0311 1.53125C41.6112 1.53125 43.9072 2.50847 45.531 4.25302L45.531 4.25305C47.1683 6.01213 47.9876 8.42441 47.7985 11.0806C47.6151 13.6176 46.6025 15.9801 44.9663 17.7388C43.2839 19.5459 41.1728 20.5 39.0311 20.5C36.8909 20.5 34.7783 19.5461 33.0906 17.7395C31.4509 15.9781 30.4379 13.6151 30.2591 11.0834ZM11.1694 7.58055L11.1697 7.58027C12.5001 6.1495 14.3896 5.34375 16.5135 5.34375C18.633 5.34375 20.5073 6.15114 21.8489 7.59445L21.8492 7.59478C23.2073 9.05447 23.8884 11.0402 23.7286 13.2168L23.7284 13.2188C23.4153 17.6045 20.0624 20.9766 16.5135 20.9766C12.9575 20.9766 9.6041 17.6035 9.2904 13.2179C9.13888 11.0161 9.82492 9.02538 11.1694 7.58055ZM23.8971 26.6219L23.8979 26.6223C24.0926 26.7173 24.2639 26.8085 24.4135 26.8942C20.7642 29.5225 18.2765 33.1327 17.2121 37.4039C17.1914 37.4844 17.1722 37.5689 17.1558 37.6562L3.97041 37.6562L3.96587 37.6563C3.65747 37.6577 3.35287 37.5883 3.07547 37.4536C2.79946 37.3195 2.5577 37.1242 2.3686 36.8825C2.16288 36.6123 2.02062 36.2991 1.95238 35.9664C1.88384 35.6321 1.89177 35.2867 1.97557 34.9559L1.97656 34.9519C2.73594 31.9024 4.6127 29.3684 7.44284 27.6121C9.94785 26.0603 13.1696 25.1866 16.5147 25.1866C19.4205 25.1866 21.9783 25.6838 23.8971 26.6219Z" stroke="black" stroke-width="2"/>
</svg>
