<svg width="59" height="43" viewBox="0 0 59 43" fill="none" xmlns="http://www.w3.org/2000/svg">
<path d="M39.0311 21.5C36.5816 21.5 34.2131 20.4063 32.3592 18.4214C30.5566 16.4854 29.4558 13.9036 29.2616 11.1538C29.0543 8.22059 29.949 5.52324 31.7802 3.55742C33.6114 1.5916 36.1717 0.53125 39.0311 0.53125C41.8702 0.53125 44.4377 1.61066 46.263 3.57172C48.1061 5.55184 49.0032 8.24441 48.7959 11.1526C48.5969 13.906 47.4972 16.4866 45.6982 18.4202C43.8492 20.4063 41.4818 21.5 39.0311 21.5ZM54.7374 42.4687H23.326C22.821 42.4715 22.3221 42.3582 21.8677 42.1379C21.4132 41.9175 21.0155 41.5958 20.7049 41.1975C20.3755 40.7658 20.148 40.2651 20.0395 39.733C19.9309 39.2009 19.9442 38.6511 20.0782 38.1249C21.0814 34.0967 23.5667 30.756 27.2648 28.465C30.5471 26.4324 34.7254 25.3125 39.0311 25.3125C43.4214 25.3125 47.4901 26.3848 50.7915 28.4161C54.498 30.6953 56.9868 34.055 57.9852 38.132C58.1176 38.6587 58.1294 39.2084 58.0196 39.7403C57.9099 40.2721 57.6814 40.7723 57.3514 41.2035C57.0411 41.5999 56.6443 41.92 56.1912 42.1393C55.7381 42.3586 55.2408 42.4713 54.7374 42.4687ZM16.5135 21.9766C12.321 21.9766 8.63477 18.0783 8.29283 13.2876C8.12365 10.8333 8.88854 8.56371 10.4374 6.89932C11.9695 5.2516 14.1307 4.34375 16.5135 4.34375C18.8963 4.34375 21.0409 5.25637 22.5814 6.91361C24.1421 8.59111 24.9046 10.856 24.7259 13.29C24.384 18.0795 20.6989 21.9766 16.5135 21.9766ZM24.3363 25.7235C22.2406 24.6989 19.5206 24.1866 16.5147 24.1866C13.0048 24.1866 9.59623 25.1016 6.91557 26.7624C3.87629 28.6484 1.83184 31.3946 1.00619 34.7103C0.885366 35.1872 0.873938 35.6853 0.972763 36.1672C1.07159 36.6492 1.27811 37.1026 1.57688 37.4934C1.86037 37.8574 2.22355 38.1514 2.6385 38.353C3.05344 38.5546 3.5091 38.6583 3.97041 38.6562H17.195C17.4182 38.6562 17.6343 38.5778 17.8057 38.4348C17.977 38.2918 18.0928 38.0931 18.1327 37.8735C18.1458 37.7984 18.1624 37.7234 18.1815 37.6495C19.1918 33.5916 21.5591 30.1627 25.0571 27.6631C25.1858 27.5704 25.2892 27.447 25.3582 27.3042C25.4271 27.1614 25.4593 27.0036 25.4518 26.8452C25.4444 26.6867 25.3975 26.5327 25.3155 26.3969C25.2335 26.2612 25.1188 26.1481 24.9821 26.0679C24.795 25.9582 24.5805 25.8427 24.3363 25.7235Z" fill="black"/>
</svg>
