<svg width="51" height="55" viewBox="0 0 51 55" fill="none" xmlns="http://www.w3.org/2000/svg">
<path d="M36.8537 14.2231L36.8537 14.2232C36.3452 21.1141 31.1351 26.5 25.4997 26.5C19.8636 26.5 14.6453 21.1123 14.1446 14.2223C13.8959 10.7833 14.9548 7.64477 17.0828 5.35037C19.1892 3.07976 22.1663 1.8125 25.4997 1.8125C28.8098 1.8125 31.7773 3.08511 33.897 5.37363C36.0427 7.69036 37.1051 10.823 36.8537 14.2231ZM46.4812 53.1876L46.4812 53.1875H46.4684H4.53095V53.1874L4.51795 53.1876C4.11765 53.1928 3.72122 53.1087 3.35751 52.9414C2.9938 52.7741 2.67196 52.5279 2.41539 52.2206L2.41476 52.2198C1.8464 51.5404 1.59347 50.5828 1.77637 49.5712L1.77646 49.5707C2.73136 44.2735 5.70528 39.8183 10.4233 36.6718C14.6274 33.8703 19.9816 32.3125 25.4997 32.3125C31.0178 32.3125 36.3723 33.8715 40.5766 36.6721C45.2943 39.8173 48.2681 44.2724 49.2229 49.5695L49.223 49.57C49.4059 50.5816 49.153 51.5392 48.5846 52.2186L48.5838 52.2197C48.3273 52.5272 48.0055 52.7736 47.6417 52.941C47.278 53.1085 46.8816 53.1927 46.4812 53.1876Z" stroke="black" stroke-width="2"/>
</svg>
