<svg width="51" height="55" viewBox="0 0 51 55" fill="none" xmlns="http://www.w3.org/2000/svg">
<path d="M34.6306 4.6941C32.3122 2.19096 29.0739 0.8125 25.4997 0.8125C21.9064 0.8125 18.6575 2.18262 16.3497 4.67027C14.0169 7.18533 12.8803 10.6035 13.1472 14.2945C13.6762 21.5763 19.2174 27.5 25.4997 27.5C31.782 27.5 37.3137 21.5775 37.851 14.2968C38.1215 10.6392 36.9777 7.22822 34.6306 4.6941ZM46.4684 54.1875H4.53095C3.98203 54.1946 3.43842 54.0793 2.93967 53.8499C2.44092 53.6206 1.99958 53.2829 1.64775 52.8615C0.873338 51.9357 0.561189 50.6717 0.792322 49.3933C1.79787 43.8151 4.93603 39.1293 9.86845 35.8398C14.2504 32.9197 19.8012 31.3125 25.4997 31.3125C31.1982 31.3125 36.749 32.9209 41.131 35.8398C46.0634 39.1281 49.2015 43.8139 50.2071 49.3921C50.4382 50.6705 50.1261 51.9345 49.3517 52.8603C48.9999 53.2819 48.5587 53.6198 48.0599 53.8494C47.5611 54.079 47.0175 54.1945 46.4684 54.1875Z" fill="black"/>
</svg>
