<svg width="61" height="61" viewBox="0 0 61 61" fill="none" xmlns="http://www.w3.org/2000/svg">
<path d="M49.2837 29.3202H45.9883C45.9251 29.3202 45.8645 29.2951 45.8198 29.2504C45.7751 29.2058 45.75 29.1451 45.75 29.0819V19.8795C45.75 18.6516 45.2622 17.474 44.394 16.6058C43.5257 15.7375 42.3481 15.2497 41.1202 15.2497H31.9178C31.8546 15.2497 31.794 15.2246 31.7493 15.1799C31.7046 15.1352 31.6795 15.0746 31.6795 15.0114V11.716C31.6795 8.48253 29.118 5.77566 25.8845 5.71966C25.1011 5.7059 24.3228 5.84829 23.595 6.13853C22.8672 6.42876 22.2045 6.86104 21.6455 7.41012C21.0866 7.95921 20.6425 8.61411 20.3394 9.33662C20.0362 10.0591 19.88 10.8348 19.8798 11.6183V15.0114C19.8798 15.0746 19.8547 15.1352 19.81 15.1799C19.7653 15.2246 19.7047 15.2497 19.6415 15.2497H10.4391C9.18835 15.2535 7.9899 15.752 7.10547 16.6364C6.22105 17.5209 5.72252 18.7193 5.71875 19.9701V28.3552C5.71875 28.4184 5.74385 28.479 5.78854 28.5237C5.83323 28.5684 5.89384 28.5935 5.95703 28.5935H9.16311C12.6623 28.5935 15.5586 31.6292 15.6074 35.1283C15.6575 38.6871 12.8064 41.9372 9.25842 41.9372H5.95703C5.89384 41.9372 5.83323 41.9623 5.78854 42.007C5.74385 42.0517 5.71875 42.1123 5.71875 42.1755V50.5606C5.72252 51.8114 6.22105 53.0098 7.10547 53.8942C7.9899 54.7787 9.18835 55.2772 10.4391 55.281H18.8242C18.8874 55.281 18.948 55.2559 18.9927 55.2112C19.0374 55.1665 19.0625 55.1059 19.0625 55.0427V52.5491C19.0625 48.9415 22.0112 45.8355 25.6152 45.7509C29.2014 45.6675 32.4062 48.1707 32.4062 51.7413V55.0427C32.4062 55.1059 32.4314 55.1665 32.476 55.2112C32.5207 55.2559 32.5813 55.281 32.6445 55.281H41.1202C42.3481 55.281 43.5257 54.7932 44.394 53.9249C45.2622 53.0567 45.75 51.8791 45.75 50.6512V41.3582C45.75 41.295 45.7751 41.2344 45.8198 41.1897C45.8645 41.145 45.9251 41.1199 45.9883 41.1199H49.3814C52.6733 41.1199 55.2812 38.419 55.2812 35.1152C55.2812 31.8115 52.5172 29.3202 49.2837 29.3202Z" stroke="black" stroke-width="3" stroke-linecap="round" stroke-linejoin="round"/>
</svg>
