<svg width="61" height="61" viewBox="0 0 61 61" fill="none" xmlns="http://www.w3.org/2000/svg">
<path d="M41.1202 57.1877H32.6445C32.0758 57.1877 31.5303 56.9618 31.1281 56.5596C30.7259 56.1574 30.5 55.612 30.5 55.0432V51.7418C30.5016 51.2347 30.3999 50.7327 30.201 50.2662C30.0021 49.7998 29.7102 49.3788 29.3431 49.029C28.4162 48.1247 27.0699 47.6231 25.6629 47.6577C23.118 47.7172 20.9688 49.9571 20.9688 52.5496V55.0432C20.9687 55.612 20.7428 56.1574 20.3406 56.5596C19.9385 56.9618 19.393 57.1877 18.8242 57.1877H10.4391C9.56888 57.1877 8.70719 57.0163 7.90321 56.6833C7.09923 56.3503 6.36872 55.8622 5.75339 55.2468C4.51066 54.0041 3.8125 52.3186 3.8125 50.5611V42.176C3.8125 41.6072 4.03844 41.0618 4.44062 40.6596C4.8428 40.2574 5.38827 40.0315 5.95703 40.0315H9.25842C10.3497 40.0315 11.4113 39.5644 12.2477 38.7209C12.713 38.2519 13.0809 37.6955 13.3304 37.0837C13.5798 36.472 13.7058 35.8169 13.7012 35.1562C13.6654 32.6316 11.5876 30.5002 9.16311 30.5002H5.95703C5.38827 30.5002 4.8428 30.2743 4.44062 29.8721C4.03844 29.4699 3.8125 28.9245 3.8125 28.3557V19.9706C3.8125 19.1004 3.9839 18.2387 4.31692 17.4347C4.64994 16.6307 5.13805 15.9002 5.75339 15.2849C6.99612 14.0421 8.68162 13.344 10.4391 13.344H17.0204C17.2732 13.344 17.5156 13.2436 17.6944 13.0648C17.8731 12.8861 17.9736 12.6436 17.9736 12.3909V11.6188C17.9736 10.582 18.1801 9.55561 18.581 8.59948C18.982 7.64335 19.5694 6.77666 20.3089 6.05C21.0484 5.32333 21.9253 4.75124 22.8883 4.36712C23.8513 3.98299 24.8812 3.79453 25.9179 3.81273C30.1462 3.88659 33.5857 7.43222 33.5857 11.7153V12.3909C33.5857 12.6436 33.6862 12.8861 33.8649 13.0648C34.0437 13.2436 34.2861 13.344 34.5389 13.344H41.1202C41.9785 13.344 42.8284 13.513 43.6214 13.8415C44.4144 14.17 45.135 14.6514 45.7419 15.2583C46.3488 15.8653 46.8303 16.5858 47.1587 17.3788C47.4872 18.1718 47.6562 19.0217 47.6562 19.88V26.4614C47.6562 26.7141 47.7567 26.9566 47.9354 27.1353C48.1142 27.3141 48.3566 27.4145 48.6094 27.4145H49.2837C53.6419 27.4145 57.1875 30.8696 57.1875 35.1157C57.1875 39.4775 53.686 43.0267 49.3814 43.0267H48.6094C48.3566 43.0267 48.1142 43.1271 47.9354 43.3058C47.7567 43.4846 47.6562 43.727 47.6562 43.9798V50.6517C47.6563 51.51 47.4872 52.3599 47.1587 53.1529C46.8303 53.9459 46.3488 54.6664 45.7419 55.2734C45.135 55.8803 44.4144 56.3617 43.6214 56.6902C42.8284 57.0187 41.9785 57.1877 41.1202 57.1877Z" fill="black"/>
</svg>
