<svg width="61" height="61" viewBox="0 0 61 61" fill="none" xmlns="http://www.w3.org/2000/svg">
<path d="M31.2491 22.9119C29.6847 22.7574 28.1107 23.0903 26.7427 23.8648C25.3747 24.6394 24.2796 25.8179 23.6072 27.239C22.9349 28.66 22.7182 30.2542 22.9869 31.8031C23.2556 33.352 23.9964 34.7801 25.108 35.8917C26.2197 37.0033 27.6477 37.7442 29.1966 38.0128C30.7456 38.2815 32.3397 38.0648 33.7608 37.3925C35.1818 36.7202 36.3603 35.625 37.1349 34.257C37.9095 32.889 38.2423 31.3151 38.0878 29.7506C37.9117 27.9968 37.1346 26.3579 35.8882 25.1115C34.6419 23.8652 33.0029 23.0881 31.2491 22.9119ZM49.6087 30.5C49.6038 31.3288 49.5429 32.1563 49.4264 32.9769L54.8128 37.2017C55.0473 37.3961 55.2053 37.6674 55.2588 37.9673C55.3122 38.2672 55.2576 38.5764 55.1047 38.8398L50.009 47.6562C49.8543 47.9172 49.6124 48.1151 49.326 48.2152C49.0396 48.3152 48.7271 48.3109 48.4435 48.2031L43.0941 46.049C42.7991 45.9316 42.4796 45.8892 42.1641 45.9255C41.8487 45.9619 41.5472 46.076 41.2867 46.2575C40.4703 46.8197 39.6124 47.3192 38.7204 47.7516C38.44 47.8879 38.1975 48.0911 38.0142 48.3434C37.8309 48.5956 37.7126 48.8891 37.6696 49.1979L36.8678 54.9036C36.8151 55.2049 36.6595 55.4786 36.4274 55.6779C36.1953 55.8771 35.9012 55.9896 35.5954 55.9961H25.4041C25.1033 55.9909 24.8133 55.8834 24.5818 55.6913C24.3503 55.4992 24.1911 55.234 24.1305 54.9393L23.3299 49.242C23.2849 48.9298 23.1635 48.6335 22.9764 48.3795C22.7894 48.1255 22.5424 47.9217 22.2576 47.7861C21.3667 47.3561 20.5117 46.8553 19.7008 46.2885C19.4412 46.1079 19.1407 45.9947 18.8265 45.9591C18.5122 45.9236 18.194 45.9667 17.9006 46.0848L12.5524 48.2377C12.269 48.3456 11.9566 48.35 11.6702 48.2502C11.3838 48.1504 11.1418 47.9527 10.9869 47.692L5.89124 38.8756C5.73805 38.6122 5.6833 38.303 5.73675 38.003C5.7902 37.703 5.94839 37.4317 6.18314 37.2374L10.7355 33.6632C10.9849 33.4652 11.1809 33.2081 11.3058 32.9151C11.4306 32.6222 11.4803 32.3027 11.4503 31.9857C11.4075 31.4889 11.3812 30.9932 11.3812 30.4964C11.3812 29.9996 11.4063 29.5111 11.4503 29.025C11.477 28.7099 11.4249 28.3932 11.2986 28.1032C11.1724 27.8133 10.976 27.5593 10.7272 27.3642L6.17718 23.79C5.94624 23.5947 5.79139 23.3244 5.73976 23.0264C5.68814 22.7284 5.74303 22.4217 5.89482 22.1602L10.9905 13.3438C11.1452 13.0828 11.3871 12.8849 11.6735 12.7848C11.9599 12.6848 12.2724 12.6891 12.556 12.7969L17.9054 14.951C18.2004 15.0684 18.5199 15.1108 18.8353 15.0745C19.1508 15.0381 19.4522 14.924 19.7127 14.7425C20.5292 14.1803 21.3871 13.6808 22.279 13.2484C22.5595 13.1121 22.802 12.9089 22.9853 12.6566C23.1686 12.4044 23.2869 12.1109 23.3299 11.8021L24.1317 6.09643C24.1843 5.7951 24.34 5.52141 24.5721 5.32214C24.8042 5.12287 25.0983 5.01038 25.4041 5.00391H35.5954C35.8962 5.00911 36.1862 5.11661 36.4177 5.30871C36.6492 5.5008 36.8084 5.76603 36.869 6.06068L37.6696 11.758C37.7146 12.0702 37.836 12.3665 38.0231 12.6205C38.2101 12.8745 38.4571 13.0783 38.7419 13.2139C39.6328 13.6439 40.4878 14.1447 41.2986 14.7115C41.5583 14.8921 41.8587 15.0053 42.173 15.0409C42.4873 15.0764 42.8054 15.0333 43.0989 14.9152L48.4471 12.7623C48.7305 12.6544 49.0429 12.65 49.3293 12.7498C49.6157 12.8496 49.8577 13.0473 50.0126 13.308L55.1082 22.1244C55.2614 22.3878 55.3162 22.697 55.2627 22.997C55.2093 23.297 55.0511 23.5683 54.8163 23.7626L50.264 27.3368C50.0135 27.5342 49.8163 27.791 49.6904 28.084C49.5645 28.377 49.5139 28.6968 49.5432 29.0143C49.5825 29.5076 49.6087 30.0032 49.6087 30.5Z" stroke="black" stroke-width="4" stroke-linecap="round" stroke-linejoin="round"/>
</svg>
