<svg width="61" height="61" viewBox="0 0 61 61" fill="none" xmlns="http://www.w3.org/2000/svg">
<path d="M30.5 36.2188C33.6584 36.2188 36.2188 33.6584 36.2188 30.5C36.2188 27.3416 33.6584 24.7812 30.5 24.7812C27.3416 24.7812 24.7812 27.3416 24.7812 30.5C24.7812 33.6584 27.3416 36.2188 30.5 36.2188Z" fill="black"/>
<path d="M56.0426 35.7422L55.9866 35.6969L52.2265 32.7482C51.9884 32.5598 51.7984 32.3176 51.6721 32.0416C51.5457 31.7655 51.4867 31.4634 51.4998 31.16V29.7828C51.4879 29.4814 51.5476 29.1814 51.6742 28.9076C51.8007 28.6338 51.9904 28.3939 52.2277 28.2077L55.9866 25.2578L56.0426 25.2125C56.6223 24.7296 57.0113 24.0562 57.1401 23.3128C57.2689 22.5694 57.129 21.8044 56.7455 21.1546L51.657 12.3501C51.6512 12.3418 51.646 12.333 51.6416 12.3239C51.256 11.6831 50.6582 11.1976 49.9519 10.9517C49.2457 10.7057 48.4756 10.7149 47.7754 10.9776L47.7337 10.9931L43.3136 12.7719C43.0346 12.8847 42.7329 12.9296 42.4331 12.9028C42.1334 12.8761 41.8443 12.7786 41.5897 12.6182C41.1989 12.372 40.8017 12.1392 40.3983 11.92C40.1367 11.7782 39.912 11.5768 39.7426 11.3322C39.5731 11.0876 39.4634 10.8065 39.4225 10.5118L38.7565 5.795L38.7422 5.70922C38.5972 4.97865 38.2052 4.32024 37.632 3.84466C37.0587 3.36908 36.3393 3.1053 35.5945 3.09766H25.4056C24.6503 3.10007 23.9201 3.36896 23.3437 3.85694C22.7672 4.34493 22.3814 5.0207 22.2543 5.76521L22.2436 5.83193L21.58 10.5582C21.5393 10.8522 21.4305 11.1325 21.2624 11.377C21.0942 11.6215 20.8713 11.8233 20.6114 11.9665C20.2067 12.1844 19.8094 12.4157 19.42 12.6599C19.1658 12.8193 18.8774 12.9161 18.5786 12.9424C18.2797 12.9687 17.9789 12.9237 17.7008 12.8112L13.2771 11.0241L13.2354 11.0074C12.5342 10.7444 11.763 10.7356 11.056 10.9824C10.349 11.2293 9.75084 11.7162 9.3657 12.3585L9.35021 12.3847L4.25457 21.1951C3.8705 21.8455 3.73032 22.6114 3.8591 23.3557C3.98788 24.1 4.37722 24.7742 4.9575 25.2578L5.0135 25.3031L8.77357 28.2518C9.01169 28.4402 9.20172 28.6824 9.32806 28.9584C9.4544 29.2345 9.51344 29.5366 9.50033 29.84V31.2172C9.51226 31.5186 9.4525 31.8186 9.32595 32.0924C9.1994 32.3662 9.00968 32.606 8.77238 32.7923L5.0135 35.7422L4.9575 35.7875C4.37779 36.2704 3.98877 36.9438 3.85999 37.6872C3.73121 38.4306 3.87107 39.1956 4.25457 39.8454L9.34307 48.6499C9.34892 48.6582 9.3541 48.667 9.35855 48.6761C9.74412 49.3169 10.3419 49.8024 11.0482 50.0483C11.7544 50.2943 12.5245 50.2851 13.2247 50.0224L13.2664 50.0069L17.6829 48.2281C17.9619 48.1153 18.2637 48.0704 18.5634 48.0972C18.8632 48.1239 19.1522 48.2214 19.4069 48.3818C19.7977 48.6288 20.1948 48.8616 20.5983 49.08C20.8599 49.2218 21.0845 49.4232 21.254 49.6678C21.4235 49.9124 21.5331 50.1935 21.574 50.4882L22.2365 55.205L22.2508 55.2908C22.396 56.0225 22.7891 56.6819 23.3638 57.1576C23.9385 57.6333 24.6596 57.8963 25.4056 57.9023H35.5945C36.3498 57.8999 37.08 57.631 37.6565 57.1431C38.2329 56.6551 38.6187 55.9793 38.7458 55.2348L38.7565 55.1681L39.4201 50.4418C39.4615 50.1473 39.5711 49.8666 39.7404 49.622C39.9096 49.3775 40.1337 49.176 40.3947 49.0335C40.8021 48.8143 41.2001 48.582 41.5861 48.3401C41.8403 48.1807 42.1286 48.0839 42.4275 48.0576C42.7263 48.0313 43.0272 48.0763 43.3053 48.1888L47.729 49.97L47.7707 49.9866C48.4718 50.2501 49.2432 50.2592 49.9503 50.0123C50.6575 49.7654 51.2556 49.2782 51.6404 48.6356C51.6451 48.6266 51.6503 48.6178 51.6559 48.6094L56.7444 39.8061C57.1291 39.1557 57.2698 38.3896 57.1412 37.645C57.0127 36.9004 56.6232 36.2258 56.0426 35.7422ZM40.0206 30.948C39.9338 32.793 39.3129 34.573 38.2332 36.0716C37.1536 37.5702 35.6617 38.7229 33.9392 39.3893C32.2166 40.0558 30.3375 40.2075 28.5303 39.8258C26.7231 39.4441 25.0658 38.5456 23.7598 37.2395C22.4539 35.9333 21.5555 34.2759 21.1741 32.4687C20.7926 30.6615 20.9445 28.7824 21.6112 27.0599C22.2779 25.3374 23.4307 23.8457 24.9294 22.7662C26.4282 21.6868 28.2083 21.066 30.0533 20.9795C31.3778 20.9212 32.7 21.1391 33.9358 21.6194C35.1716 22.0998 36.2939 22.832 37.2313 23.7696C38.1688 24.7072 38.9009 25.8295 39.3811 27.0654C39.8613 28.3012 40.0791 29.6234 40.0206 30.948Z" fill="black"/>
</svg>
