<svg width="61" height="61" viewBox="0 0 61 61" fill="none" xmlns="http://www.w3.org/2000/svg">
<g clip-path="url(#clip0_547_2367)">
<path d="M30.967 31.3233L25.782 17.8437C25.7042 17.6414 25.5669 17.4675 25.3883 17.3448C25.2096 17.2221 24.998 17.1564 24.7812 17.1564C24.5645 17.1564 24.3529 17.2221 24.1742 17.3448C23.9956 17.4675 23.8583 17.6414 23.7805 17.8437L18.5955 31.3233C18.5416 31.4633 18.459 31.5905 18.3529 31.6966C18.2468 31.8027 18.1196 31.8854 17.9795 31.9392L4.49994 37.1242C4.29766 37.202 4.1237 37.3393 4.00101 37.518C3.87831 37.6966 3.81263 37.9083 3.81263 38.125C3.81263 38.3417 3.87831 38.5534 4.00101 38.732C4.1237 38.9107 4.29766 39.048 4.49994 39.1258L17.9795 44.3108C18.1196 44.3646 18.2468 44.4473 18.3529 44.5534C18.459 44.6595 18.5416 44.7867 18.5955 44.9267L23.7805 58.4063C23.8583 58.6086 23.9956 58.7825 24.1742 58.9052C24.3529 59.0279 24.5645 59.0936 24.7812 59.0936C24.998 59.0936 25.2096 59.0279 25.3883 58.9052C25.5669 58.7825 25.7042 58.6086 25.782 58.4063L30.967 44.9267C31.0209 44.7867 31.1035 44.6595 31.2096 44.5534C31.3157 44.4473 31.4429 44.3646 31.583 44.3108L45.0626 39.1258C45.2648 39.048 45.4388 38.9107 45.5615 38.732C45.6842 38.5534 45.7499 38.3417 45.7499 38.125C45.7499 37.9083 45.6842 37.6966 45.5615 37.518C45.4388 37.3393 45.2648 37.202 45.0626 37.1242L31.583 31.9392C31.4429 31.8854 31.3157 31.8027 31.2096 31.6966C31.1035 31.5905 31.0209 31.4633 30.967 31.3233ZM12.8672 8.10156L10.4844 1.90625L8.10156 8.10156L1.90625 10.4844L8.10156 12.8672L10.4844 19.0625L12.8672 12.8672L19.0625 10.4844L12.8672 8.10156ZM50.8337 13.9788L47.6562 5.71875L44.4788 13.9788L36.2188 17.1562L44.4788 20.3337L47.6562 28.5938L50.8337 20.3337L59.0938 17.1562L50.8337 13.9788Z" stroke="black" stroke-width="3" stroke-linecap="round" stroke-linejoin="round"/>
</g>
<defs>
<clipPath id="clip0_547_2367">
<rect width="61" height="61" fill="white"/>
</clipPath>
</defs>
</svg>
