<svg width="61" height="61" viewBox="0 0 61 61" fill="none" xmlns="http://www.w3.org/2000/svg">
<g clip-path="url(#clip0_612_2350)">
<path d="M32.1815 2.73508L32.1834 2.73941L38.9929 18.5017L39.3173 19.2527L40.1243 19.3866L55.3385 21.9117C55.3391 21.9118 55.3396 21.9119 55.3401 21.912C55.967 22.0185 56.6068 22.5424 56.8706 23.4407C57.1338 24.3365 56.9036 25.304 56.3579 25.9108L56.3574 25.9114L45.3223 38.1948L44.8495 38.7211L44.9549 39.4208L47.5701 56.7759C47.5702 56.7766 47.5704 56.7774 47.5705 56.7781C47.71 57.7255 47.3465 58.6263 46.7379 59.1242C46.1798 59.5809 45.4797 59.6274 44.8772 59.2712C44.8762 59.2706 44.8751 59.27 44.8741 59.2694L31.2933 51.1122L30.521 50.6483L29.7486 51.1122L16.1678 59.2694C16.1668 59.27 16.1659 59.2705 16.1649 59.2711C15.5712 59.6221 14.8654 59.5771 14.296 59.1177C13.6998 58.6367 13.3307 57.7312 13.4716 56.7773C13.4716 56.7768 13.4717 56.7763 13.4718 56.7759L16.0766 39.4199L16.1815 38.7207L15.709 38.1948L4.67395 25.9114L4.67341 25.9108C4.13319 25.3101 3.9032 24.3411 4.16365 23.4304C4.41583 22.5486 5.05715 22.0198 5.69092 21.912C5.69154 21.9119 5.69215 21.9118 5.69277 21.9117L20.8966 19.3866L21.7034 19.2526L22.0278 18.5017L28.8352 2.74445C28.8355 2.74371 28.8358 2.74298 28.8361 2.74224C29.2034 1.90271 29.8847 1.5 30.5104 1.5C31.1431 1.5 31.8278 1.90925 32.1815 2.73508Z" stroke="black" stroke-width="3"/>
</g>
<defs>
<clipPath id="clip0_612_2350">
<rect width="61" height="61" fill="white"/>
</clipPath>
</defs>
</svg>
