<svg width="61" height="61" viewBox="0 0 61 61" fill="none" xmlns="http://www.w3.org/2000/svg">
<g clip-path="url(#clip0_611_2341)">
<path d="M33.5604 2.14453C32.9991 0.833984 31.813 0 30.5104 0C29.2078 0 28.0322 0.833984 27.4604 2.14453L20.6508 17.9068L5.44317 20.4326C4.17234 20.6471 3.11331 21.6479 2.72147 23.018C2.32963 24.3881 2.64734 25.9012 3.5581 26.9139L14.5932 39.1973L11.988 56.5561C11.7762 57.9857 12.3057 59.4393 13.3541 60.2852C14.4025 61.1311 15.7899 61.2383 16.9336 60.5592L30.521 52.398L44.1083 60.5592C45.252 61.2383 46.6394 61.143 47.6878 60.2852C48.7362 59.4273 49.2657 57.9857 49.0539 56.5561L46.4381 39.1973L57.4732 26.9139C58.384 25.9012 58.7123 24.3881 58.3098 23.018C57.9074 21.6479 56.859 20.6471 55.5881 20.4326L40.3699 17.9068L33.5604 2.14453Z" fill="black"/>
</g>
<defs>
<clipPath id="clip0_611_2341">
<rect width="61" height="61" fill="white"/>
</clipPath>
</defs>
</svg>
