<svg width="61" height="61" viewBox="0 0 61 61" fill="none" xmlns="http://www.w3.org/2000/svg">
<path d="M37.3387 3.91961C40.4363 4.53914 42.4498 7.5534 41.8303 10.6511L41.5562 12.0093C40.9248 15.1903 39.7572 18.2165 38.125 20.9686H55.2812C58.4385 20.9686 61 23.5302 61 26.6874C61 28.8915 59.749 30.8096 57.9143 31.7628C59.2129 32.8112 60.0469 34.4196 60.0469 36.2186C60.0469 39.0065 58.0453 41.3298 55.4123 41.8302C55.9365 42.6999 56.2344 43.7126 56.2344 44.7968C56.2344 47.3345 54.5783 49.4909 52.2908 50.2296C52.3742 50.6227 52.4219 51.0397 52.4219 51.4686C52.4219 54.6259 49.8604 57.1874 46.7031 57.1874H35.0869C32.8232 57.1874 30.6191 56.5202 28.7367 55.2692L24.1498 52.2073C20.9687 50.0866 19.0625 46.5124 19.0625 42.688V38.1249V32.4061V29.4395C19.0625 25.9606 20.6471 22.6843 23.3516 20.504L24.2332 19.8011C27.3904 17.2753 29.5469 13.7249 30.3332 9.76941L30.6072 8.41121C31.2268 5.31355 34.241 3.30008 37.3387 3.91961ZM3.8125 22.8749H11.4375C13.5463 22.8749 15.25 24.5786 15.25 26.6874V53.3749C15.25 55.4837 13.5463 57.1874 11.4375 57.1874H3.8125C1.70371 57.1874 0 55.4837 0 53.3749V26.6874C0 24.5786 1.70371 22.8749 3.8125 22.8749Z" fill="black"/>
</svg>
