<svg width="61" height="61" viewBox="0 0 61 61" fill="none" xmlns="http://www.w3.org/2000/svg">
<path d="M35.0869 55.6874C33.1196 55.6874 31.2046 55.1079 29.5681 54.0207C29.5677 54.0204 29.5673 54.0202 29.5669 54.0199L24.9826 50.9597L24.9819 50.9592C22.2197 49.1178 20.5625 46.0127 20.5625 42.688V38.1249V32.4061V29.4395C20.5625 26.4205 21.9367 23.5729 24.2898 21.6743C24.2909 21.6735 24.2919 21.6726 24.293 21.6718L25.1683 20.9739L25.1702 20.9724C28.6028 18.2263 30.9483 14.3656 31.804 10.0641C31.8041 10.0634 31.8043 10.0626 31.8044 10.0619L32.0776 8.70786L32.0781 8.70538C32.5355 6.4185 34.7607 4.93373 37.0445 5.39048C39.3312 5.84782 40.8159 8.0728 40.3595 10.3564C40.3595 10.3565 40.3594 10.3567 40.3594 10.3569L40.0859 11.7126L40.085 11.7172C39.4869 14.73 38.3811 17.5963 36.8348 20.2035L35.4914 22.4686H38.125H55.2812C57.6101 22.4686 59.5 24.3586 59.5 26.6874C59.5 28.3102 58.5801 29.7266 57.2228 30.4317L55.1873 31.489L56.972 32.9299C57.9339 33.7064 58.5469 34.8931 58.5469 36.2186C58.5469 38.2731 57.0703 39.9882 55.1322 40.3565L53.0152 40.7589L54.1276 42.6045C54.5143 43.2461 54.7344 43.9919 54.7344 44.7968C54.7344 46.6677 53.5133 48.2586 51.8299 48.8021L50.5428 49.2178L50.8235 50.5408C50.8864 50.8376 50.9219 51.1502 50.9219 51.4686C50.9219 53.7974 49.0319 55.6874 46.7031 55.6874H35.0869ZM3.8125 24.3749H11.4375C12.7179 24.3749 13.75 25.407 13.75 26.6874V53.3749C13.75 54.6552 12.7179 55.6874 11.4375 55.6874H3.8125C2.53214 55.6874 1.5 54.6552 1.5 53.3749V26.6874C1.5 25.407 2.53214 24.3749 3.8125 24.3749Z" stroke="black" stroke-width="3"/>
</svg>
