<svg width="45" height="60" viewBox="0 0 45 60" fill="none" xmlns="http://www.w3.org/2000/svg">
<path d="M22.5 0C17.6016 0 13.4297 3.12891 11.8945 7.5H7.5C3.36328 7.5 0 10.8633 0 15V52.5C0 56.6367 3.36328 60 7.5 60H37.5C41.6367 60 45 56.6367 45 52.5V15C45 10.8633 41.6367 7.5 37.5 7.5H33.1055C31.5703 3.12891 27.3984 0 22.5 0ZM22.5 7.5C23.4946 7.5 24.4484 7.89509 25.1516 8.59835C25.8549 9.30161 26.25 10.2554 26.25 11.25C26.25 12.2446 25.8549 13.1984 25.1516 13.9017C24.4484 14.6049 23.4946 15 22.5 15C21.5054 15 20.5516 14.6049 19.8484 13.9017C19.1451 13.1984 18.75 12.2446 18.75 11.25C18.75 10.2554 19.1451 9.30161 19.8484 8.59835C20.5516 7.89509 21.5054 7.5 22.5 7.5ZM8.4375 31.875C8.4375 31.1291 8.73382 30.4137 9.26126 29.8863C9.78871 29.3588 10.5041 29.0625 11.25 29.0625C11.9959 29.0625 12.7113 29.3588 13.2387 29.8863C13.7662 30.4137 14.0625 31.1291 14.0625 31.875C14.0625 32.6209 13.7662 33.3363 13.2387 33.8637C12.7113 34.3912 11.9959 34.6875 11.25 34.6875C10.5041 34.6875 9.78871 34.3912 9.26126 33.8637C8.73382 33.3363 8.4375 32.6209 8.4375 31.875ZM20.625 30H35.625C36.6563 30 37.5 30.8437 37.5 31.875C37.5 32.9063 36.6563 33.75 35.625 33.75H20.625C19.5937 33.75 18.75 32.9063 18.75 31.875C18.75 30.8437 19.5937 30 20.625 30ZM8.4375 43.125C8.4375 42.3791 8.73382 41.6637 9.26126 41.1363C9.78871 40.6088 10.5041 40.3125 11.25 40.3125C11.9959 40.3125 12.7113 40.6088 13.2387 41.1363C13.7662 41.6637 14.0625 42.3791 14.0625 43.125C14.0625 43.8709 13.7662 44.5863 13.2387 45.1137C12.7113 45.6412 11.9959 45.9375 11.25 45.9375C10.5041 45.9375 9.78871 45.6412 9.26126 45.1137C8.73382 44.5863 8.4375 43.8709 8.4375 43.125ZM18.75 43.125C18.75 42.0937 19.5937 41.25 20.625 41.25H35.625C36.6563 41.25 37.5 42.0937 37.5 43.125C37.5 44.1563 36.6563 45 35.625 45H20.625C19.5937 45 18.75 44.1563 18.75 43.125Z" fill="black"/>
</svg>
