<svg width="45" height="60" viewBox="0 0 45 60" fill="none" xmlns="http://www.w3.org/2000/svg">
<path d="M11.8945 8.5H12.6032L12.838 7.83136C14.2363 3.84996 18.0375 1 22.5 1C26.9625 1 30.7637 3.84996 32.162 7.83136L32.3968 8.5H33.1055H37.5C41.0844 8.5 44 11.4156 44 15V52.5C44 56.0844 41.0844 59 37.5 59H7.5C3.91557 59 1 56.0844 1 52.5V15C1 11.4156 3.91557 8.5 7.5 8.5H11.8945ZM25.8588 7.89124C24.968 7.00044 23.7598 6.5 22.5 6.5C21.2402 6.5 20.032 7.00044 19.1412 7.89124C18.2504 8.78204 17.75 9.99022 17.75 11.25C17.75 12.5098 18.2504 13.718 19.1412 14.6088C20.032 15.4996 21.2402 16 22.5 16C23.7598 16 24.968 15.4996 25.8588 14.6088C26.7496 13.718 27.25 12.5098 27.25 11.25C27.25 9.99022 26.7496 8.78204 25.8588 7.89124ZM8.55416 29.1792C7.83917 29.8941 7.4375 30.8639 7.4375 31.875C7.4375 32.8861 7.83917 33.8559 8.55416 34.5708C9.26914 35.2858 10.2389 35.6875 11.25 35.6875C12.2611 35.6875 13.2309 35.2858 13.9458 34.5708C14.6608 33.8559 15.0625 32.8861 15.0625 31.875C15.0625 30.8639 14.6608 29.8941 13.9458 29.1792C13.2309 28.4642 12.2611 28.0625 11.25 28.0625C10.2389 28.0625 9.26914 28.4642 8.55416 29.1792ZM35.625 29H20.625C19.0415 29 17.75 30.2915 17.75 31.875C17.75 33.4585 19.0415 34.75 20.625 34.75H35.625C37.2085 34.75 38.5 33.4585 38.5 31.875C38.5 30.2915 37.2085 29 35.625 29ZM8.55416 40.4292C7.83917 41.1441 7.4375 42.1139 7.4375 43.125C7.4375 44.1361 7.83917 45.1059 8.55416 45.8208C9.26914 46.5358 10.2389 46.9375 11.25 46.9375C12.2611 46.9375 13.2309 46.5358 13.9458 45.8208C14.6608 45.1059 15.0625 44.1361 15.0625 43.125C15.0625 42.1139 14.6608 41.1441 13.9458 40.4292C13.2309 39.7142 12.2611 39.3125 11.25 39.3125C10.2389 39.3125 9.26914 39.7142 8.55416 40.4292ZM20.625 40.25C19.0415 40.25 17.75 41.5415 17.75 43.125C17.75 44.7085 19.0415 46 20.625 46H35.625C37.2085 46 38.5 44.7085 38.5 43.125C38.5 41.5415 37.2085 40.25 35.625 40.25H20.625Z" stroke="black" stroke-width="2"/>
</svg>
