<svg width="28" height="39" viewBox="0 0 28 39" fill="none" xmlns="http://www.w3.org/2000/svg">
<path d="M12.8691 30.157V38C12.8691 38.5523 13.3168 39 13.8691 39H15.8038C16.3561 39 16.8038 38.5523 16.8038 38V30.157C20.2939 29.5673 23.612 28.4331 23.5478 24.6296C27.0709 23.2215 27.3154 21.7435 26.3583 18.5499C28.5665 15.6604 28.5278 13.9771 26.3583 10.812C27.5095 7.63241 27.1454 6.42883 23.5478 5.83763C22.5882 1.22538 21.2252 0.591948 17.9268 1.41597C14.9527 -0.61581 13.985 -0.322485 11.7436 1.41597C7.58238 1.72437 6.53963 2.82854 6.12257 5.83763C2.63085 6.23371 1.78759 7.4473 1.62574 10.812C-0.602096 13.7027 -0.480881 15.4032 1.62574 18.5499C0.170665 21.8206 1.1055 23.0812 4.99836 24.6296C6.42865 28.4688 8.94535 29.7307 12.8691 30.157Z" fill="black"/>
</svg>
