<svg width="32" height="45" viewBox="0 0 32 45" fill="none" xmlns="http://www.w3.org/2000/svg">
<path d="M14.7076 34.7966V44C14.7076 44.5523 15.1553 45 15.7076 45H18.2044C18.7567 45 19.2044 44.5523 19.2044 44V34.7966C23.193 34.1161 26.9851 32.8074 26.9118 28.4188C30.9381 26.794 31.2176 25.0887 30.1238 21.4037C32.6475 18.0697 32.6032 16.1274 30.1238 12.4754C31.4394 8.80663 31.0233 7.41788 26.9118 6.73572C25.8151 1.4139 24.2573 0.683017 20.4877 1.63382C17.0887 -0.710549 15.9828 -0.372098 13.4213 1.63382C8.66558 1.98966 7.47387 3.2637 6.99722 6.73572C3.00668 7.19274 2.04297 8.59304 1.85798 12.4754C-0.688109 15.8108 -0.549578 17.7729 1.85798 21.4037C0.195046 25.1776 1.26343 26.6321 5.71241 28.4188C7.34703 32.8486 10.2233 34.3046 14.7076 34.7966Z" fill="black"/>
</svg>
