<svg width="41" height="44" viewBox="0 0 41 44" fill="none" xmlns="http://www.w3.org/2000/svg">
<path d="M23.6422 33.4768V41.9231C23.6422 42.5179 24.1262 43 24.7233 43H26.8149C27.4119 43 27.8959 42.5179 27.8959 41.9231V33.4768C31.669 32.8418 35.2561 31.6202 35.1867 27.5242C38.9954 26.0077 39.2597 24.4161 38.2251 20.9768C40.6124 17.8651 40.5705 16.0523 38.2251 12.6437C39.4696 9.21952 39.076 7.92336 35.1867 7.28667C34.1493 2.31964 32.6758 1.63748 29.1099 2.5249C25.8947 0.336821 24.8485 0.652708 22.4254 2.5249C17.9268 2.85702 16.7995 4.04612 16.3486 7.28667C12.5738 7.71323 11.6622 9.02017 11.4872 12.6437C9.07871 15.7568 9.20976 17.5881 11.4872 20.9768C9.91413 24.4991 10.9248 25.8567 15.1333 27.5242C16.6795 31.6587 19.4003 33.0177 23.6422 33.4768Z" stroke="black" stroke-linecap="round"/>
</svg>
