<svg width="30" height="41" viewBox="0 0 30 41" fill="none" xmlns="http://www.w3.org/2000/svg">
<path d="M13.8691 31.157V39C13.8691 39.5523 14.3168 40 14.8691 40H16.8038C17.3561 40 17.8038 39.5523 17.8038 39V31.157C21.2939 30.5673 24.612 29.4331 24.5478 25.6296C28.0709 24.2215 28.3154 22.7435 27.3583 19.5499C29.5665 16.6604 29.5278 14.9771 27.3583 11.812C28.5095 8.63241 28.1454 7.42883 24.5478 6.83763C23.5882 2.22538 22.2252 1.59195 18.9268 2.41597C15.9527 0.38419 14.985 0.677515 12.7436 2.41597C8.58238 2.72437 7.53963 3.82854 7.12257 6.83763C3.63085 7.23371 2.78759 8.4473 2.62574 11.812C0.397904 14.7027 0.519119 16.4032 2.62574 19.5499C1.17067 22.8206 2.1055 24.0812 5.99836 25.6296C7.42865 29.4688 9.94535 30.7307 13.8691 31.157Z" stroke="black" stroke-width="1.5" stroke-linecap="round"/>
</svg>
