<svg width="37" height="39" viewBox="0 0 37 39" fill="none" xmlns="http://www.w3.org/2000/svg">
<path d="M21.8691 30.157V38C21.8691 38.5523 22.3168 39 22.8691 39H24.8038C25.3561 39 25.8038 38.5523 25.8038 38V30.157C29.2939 29.5673 32.6119 28.4331 32.5478 24.6296C36.0709 23.2215 36.3154 21.7435 35.3583 18.5499C37.5665 15.6604 37.5278 13.9771 35.3583 10.812C36.5095 7.63241 36.1454 6.42883 32.5478 5.83763C31.5882 1.22538 30.2252 0.591948 26.9268 1.41597C23.9527 -0.615809 22.985 -0.322485 20.7436 1.41597C16.5824 1.72437 15.5396 2.82854 15.1226 5.83763C11.6308 6.23371 10.7876 7.4473 10.6257 10.812C8.3979 13.7027 8.51912 15.4032 10.6257 18.5499C9.17067 21.8206 10.1055 23.0812 13.9984 24.6296C15.4287 28.4688 17.9454 29.7307 21.8691 30.157Z" fill="black"/>
<path d="M12.8691 38V30.157C8.94535 29.7307 6.42865 28.4688 4.99836 24.6296C1.1055 23.0812 0.170665 21.8206 1.62574 18.5499C-0.480881 15.4032 -0.602096 13.7027 1.62574 10.812C1.78759 7.4473 2.63085 6.23371 6.12257 5.83763C6.53963 2.82854 7.58238 1.72437 11.7436 1.41597C13.8525 -0.219781 14.8339 -0.576108 17.42 1.08004C18.6386 0.789444 19.4428 1.03724 17.9268 1.41597C17.7511 1.29594 17.5824 1.18402 17.42 1.08004C15.9872 1.4217 13.9814 2.50761 14.5 5C11 5.5 10.6512 6.82043 9.5 10C6.95405 12.7851 6.16323 15.9866 9.5 18.5499C6.63607 21.9659 10.3125 25.9704 13.5 25.5C13.5642 29.3034 19 30.5 16.8038 30.157V38C16.8038 38.5523 16.3561 39 15.8038 39H13.8691C13.3168 39 12.8691 38.5523 12.8691 38Z" fill="black"/>
</svg>
