<svg width="73" height="43" viewBox="0 0 73 43" fill="none" xmlns="http://www.w3.org/2000/svg">
<path d="M0 7.16667C0 3.2138 3.27359 0 7.3 0H29.2H34.675H36.5H65.7C69.7264 0 73 3.2138 73 7.16667V35.8333C73 39.7862 69.7264 43 65.7 43H36.5H34.675H29.2H7.3C3.27359 43 0 39.7862 0 35.8333V7.16667ZM36.5 7.16667V35.8333H65.7V7.16667H36.5ZM20.3373 12.5305C19.9723 11.7242 19.1511 11.1979 18.25 11.1979C17.3489 11.1979 16.5277 11.7242 16.1627 12.5305L8.86266 28.6555C8.34937 29.7865 8.87406 31.1078 10.0261 31.6117C11.1781 32.1156 12.5241 31.6005 13.0373 30.4695L14.0525 28.2187H22.4475L23.4627 30.4695C23.9759 31.6005 25.3219 32.1044 26.4739 31.6117C27.6259 31.119 28.1392 29.7865 27.6373 28.6555L20.3373 12.5305ZM18.25 18.9469L20.4172 23.7396H16.0828L18.25 18.9469ZM51.1 11.1979C52.3547 11.1979 53.3813 12.2057 53.3813 13.4375V13.8854H58.4H60.225C61.4797 13.8854 62.5063 14.8932 62.5063 16.125C62.5063 17.3568 61.4797 18.3646 60.225 18.3646H59.9969L59.8144 18.8685C58.7992 21.6008 57.2594 24.0867 55.2975 26.1919C55.4002 26.2591 55.5028 26.3151 55.6055 26.3711L57.7613 27.6365C58.8448 28.2747 59.187 29.6521 58.5483 30.7047C57.9095 31.7573 56.4952 32.1044 55.423 31.4773L53.2672 30.212C52.7539 29.9096 52.2634 29.5961 51.773 29.2602C50.5639 30.1 49.275 30.8279 47.8948 31.4326L47.4842 31.6117C46.3322 32.1156 44.9863 31.6005 44.473 30.4695C43.9597 29.3385 44.4844 28.0172 45.6364 27.5133L46.047 27.3341C46.777 27.0094 47.4842 26.651 48.1572 26.2367L46.7656 24.8706C45.8759 23.9971 45.8759 22.575 46.7656 21.7016C47.6553 20.8281 49.1039 20.8281 49.9936 21.7016L51.6589 23.3365L51.7159 23.3924C53.1303 21.9255 54.2823 20.2234 55.115 18.3534L51.1 18.3646H42.8875C41.6328 18.3646 40.6063 17.3568 40.6063 16.125C40.6063 14.8932 41.6328 13.8854 42.8875 13.8854H48.8188V13.4375C48.8188 12.2057 49.8453 11.1979 51.1 11.1979Z" fill="black"/>
</svg>
