<svg width="61" height="61" viewBox="0 0 61 61" fill="none" xmlns="http://www.w3.org/2000/svg">
<path d="M48.4902 15.25H22.041C18.2904 15.25 15.25 18.2904 15.25 22.041V48.4902C15.25 52.2408 18.2904 55.2812 22.041 55.2812H48.4902C52.2408 55.2812 55.2812 52.2408 55.2812 48.4902V22.041C55.2812 18.2904 52.2408 15.25 48.4902 15.25Z" stroke="black" stroke-width="3" stroke-linejoin="round"/>
<path d="M45.6904 15.25L45.75 12.3906C45.745 10.6227 45.0404 8.92858 43.7903 7.67845C42.5402 6.42832 40.8461 5.72378 39.0781 5.71875H13.3438C11.3233 5.72472 9.38733 6.52999 7.95866 7.95866C6.52999 9.38733 5.72472 11.3233 5.71875 13.3438V39.0781C5.72378 40.8461 6.42832 42.5402 7.67845 43.7903C8.92858 45.0404 10.6227 45.745 12.3906 45.75H15.25" stroke="black" stroke-width="3" stroke-linecap="round" stroke-linejoin="round"/>
</svg>
