<svg width="73" height="43" viewBox="0 0 73 43" fill="none" xmlns="http://www.w3.org/2000/svg">
<path d="M36.5 5.66667H35V7.16667V35.8333V37.3333H36.5H65.7H67.2V35.8333V7.16667V5.66667H65.7H36.5ZM14.4033 31.0894L14.4047 31.0862L15.0215 29.7188H21.4785L22.0953 31.0862L22.0967 31.0894C22.9576 32.9862 25.1853 33.7943 27.0638 32.9909C28.9895 32.1673 29.8474 29.9378 29.0084 28.0471L29.0085 28.047L29.0038 28.0368L21.7038 11.9118C21.0918 10.5599 19.7302 9.69792 18.25 9.69792C16.7698 9.69792 15.4082 10.5599 14.7962 11.9118L7.49674 28.0356C7.49667 28.0357 7.49661 28.0359 7.49654 28.036C6.62659 29.9535 7.53207 32.158 9.42497 32.986C11.3216 33.8156 13.5477 32.9745 14.4033 31.0894ZM51.8813 13.8854V15.3854H53.3813H58.4H60.225C60.6774 15.3854 61.0063 15.7476 61.0063 16.125C61.0063 16.5024 60.6774 16.8646 60.225 16.8646H59.9969H58.9448L58.5865 17.8538L58.4083 18.3461C58.4076 18.348 58.4069 18.3499 58.4062 18.3518C57.46 20.896 56.026 23.21 54.2001 25.1693L52.9862 26.4719L54.4761 27.447C54.6258 27.545 54.7703 27.6242 54.8667 27.6768L56.9999 28.9289C57.0002 28.929 57.0004 28.9291 57.0006 28.9293C57.3687 29.1465 57.4675 29.5943 57.2659 29.9265C57.0612 30.2638 56.5614 30.4048 56.1811 30.183C56.1808 30.1829 56.1805 30.1827 56.1803 30.1825L54.0285 28.9195C54.0282 28.9193 54.0279 28.9192 54.0276 28.919C53.546 28.6353 53.0846 28.3404 52.6206 28.0226L51.767 27.4379L50.9172 28.0282C49.7855 28.8143 48.5814 29.4941 47.2929 30.0586L46.8844 30.2369L46.8831 30.2374C46.4756 30.4157 46.0099 30.2265 45.8389 29.8496C45.6826 29.5053 45.8265 29.0673 46.2375 28.8876L46.6469 28.7089L46.6469 28.709L46.6567 28.7046C47.4315 28.36 48.2006 27.9715 48.9436 27.514L50.5758 26.5091L49.208 25.1663L47.8165 23.8002C47.5257 23.5147 47.5257 23.0574 47.8165 22.772C48.1227 22.4713 48.6365 22.4713 48.9428 22.772L50.6081 24.4068L50.6651 24.4628L51.7452 25.5232L52.7958 24.4336C54.3302 22.8422 55.581 20.9945 56.4853 18.9635L57.4277 16.8469L55.1108 16.8534L51.1 16.8646H51.0986H42.8875C42.4351 16.8646 42.1063 16.5024 42.1063 16.125C42.1063 15.7476 42.4351 15.3854 42.8875 15.3854H48.8188H50.3188V13.8854V13.4375C50.3188 13.0601 50.6476 12.6979 51.1 12.6979C51.5524 12.6979 51.8813 13.0601 51.8813 13.4375V13.8854ZM1.5 7.16667C1.5 4.06818 4.07583 1.5 7.3 1.5H29.2H34.675H36.5H65.7C68.9242 1.5 71.5 4.06818 71.5 7.16667V35.8333C71.5 38.9318 68.9242 41.5 65.7 41.5H36.5H34.675H29.2H7.3C4.07583 41.5 1.5 38.9318 1.5 35.8333V7.16667Z" stroke="black" stroke-width="3"/>
</svg>
