<svg width="61" height="61" viewBox="0 0 61 61" fill="none" xmlns="http://www.w3.org/2000/svg">
<path d="M48.6094 57.1875H21.9219C19.6468 57.1875 17.4649 56.2837 15.8562 54.675C14.2475 53.0663 13.3438 50.8844 13.3438 48.6094V21.9219C13.3438 19.6468 14.2475 17.4649 15.8562 15.8562C17.4649 14.2475 19.6468 13.3438 21.9219 13.3438H48.6094C50.8844 13.3438 53.0663 14.2475 54.675 15.8562C56.2837 17.4649 57.1875 19.6468 57.1875 21.9219V48.6094C57.1875 50.8844 56.2837 53.0663 54.675 54.675C53.0663 56.2837 50.8844 57.1875 48.6094 57.1875Z" fill="black"/>
<path d="M19.0625 9.53125H47.1654C46.5723 7.86 45.4766 6.41319 44.0287 5.38931C42.5808 4.36543 40.8515 3.81464 39.0781 3.8125H12.3906C10.1156 3.8125 7.93368 4.71626 6.32497 6.32497C4.71626 7.93368 3.8125 10.1156 3.8125 12.3906V39.0781C3.81464 40.8515 4.36543 42.5808 5.38931 44.0287C6.41319 45.4766 7.86 46.5723 9.53125 47.1654V19.0625C9.53125 16.5347 10.5354 14.1103 12.3229 12.3229C14.1103 10.5354 16.5347 9.53125 19.0625 9.53125Z" fill="black"/>
</svg>
