<svg width="61" height="61" viewBox="0 0 61 61" fill="none" xmlns="http://www.w3.org/2000/svg">
<path d="M12.7083 51.8818C11.3104 51.8818 10.1137 51.3841 9.11823 50.3886C8.12274 49.3931 7.625 48.1964 7.625 46.7985V11.2152C7.625 9.81725 8.12274 8.62055 9.11823 7.62507C10.1137 6.62958 11.3104 6.13184 12.7083 6.13184H48.2917C49.6896 6.13184 50.8863 6.62958 51.8818 7.62507C52.8773 8.62055 53.375 9.81725 53.375 11.2152V17.5693H49.5L49.5 11.0068C49.5 10.4546 49.0523 10.0068 48.5 10.0068H12.5C11.9477 10.0068 11.5 10.4546 11.5 11.0068L11.5 46.5068C11.5 47.0591 11.9477 47.5068 12.5 47.5068H48.5C49.0523 47.5068 49.5 47.0591 49.5 46.5068L49.5 40.4443H53.375V46.7985C53.375 48.1964 52.8773 49.3931 51.8818 50.3886C50.8863 51.3841 49.6896 51.8818 48.2917 51.8818H12.7083ZM33.0417 41.7152C31.6438 41.7152 30.4471 41.2174 29.4516 40.2219C28.4561 39.2265 27.9583 38.0298 27.9583 36.6318V21.3818C27.9583 19.9839 28.4561 18.7872 29.4516 17.7917C30.4471 16.7962 31.6438 16.2985 33.0417 16.2985H50.8333C52.2313 16.2985 53.428 16.7962 54.4234 17.7917C55.4189 18.7872 55.9167 19.9839 55.9167 21.3818V36.6318C55.9167 38.0298 55.4189 39.2265 54.4234 40.2219C53.428 41.2174 52.2313 41.7152 50.8333 41.7152H33.0417ZM49.5 38C51.1569 38 52.5 36.6569 52.5 35L52.5 23C52.5 21.3431 51.1569 20 49.5 20H34.5C32.8431 20 31.5 21.3431 31.5 23V35C31.5 36.6569 32.8431 38 34.5 38H49.5ZM40.6667 32.8193C41.7257 32.8193 42.6259 32.4487 43.3672 31.7074C44.1085 30.966 44.4792 30.0659 44.4792 29.0068C44.4792 27.9478 44.1085 27.0476 43.3672 26.3063C42.6259 25.565 41.7257 25.1943 40.6667 25.1943C39.6076 25.1943 38.7075 25.565 37.9661 26.3063C37.2248 27.0476 36.8542 27.9478 36.8542 29.0068C36.8542 30.0659 37.2248 30.966 37.9661 31.7074C38.7075 32.4487 39.6076 32.8193 40.6667 32.8193Z" fill="black"/>
</svg>
