<svg width="61" height="61" viewBox="0 0 61 61" fill="none" xmlns="http://www.w3.org/2000/svg">
<path fill-rule="evenodd" clip-rule="evenodd" d="M50.375 40C52.0319 40 53.375 38.6569 53.375 37V24C53.375 22.3431 52.0319 21 50.375 21H35C33.3432 21 32 22.3431 32 24V37C32 38.6569 33.3431 40 35 40H50.375ZM43.3672 33.2005C42.6259 33.9418 41.7257 34.3125 40.6667 34.3125C39.6076 34.3125 38.7075 33.9418 37.9661 33.2005C37.2248 32.4592 36.8542 31.559 36.8542 30.5C36.8542 29.441 37.2248 28.5408 37.9661 27.7995C38.7075 27.0582 39.6076 26.6875 40.6667 26.6875C41.7257 26.6875 42.6259 27.0582 43.3672 27.7995C44.1085 28.5408 44.4792 29.441 44.4792 30.5C44.4792 31.559 44.1085 32.4592 43.3672 33.2005Z" fill="black"/>
<path fill-rule="evenodd" clip-rule="evenodd" d="M12.7083 53.375C11.3104 53.375 10.1137 52.8773 9.11823 51.8818C8.12274 50.8863 7.625 49.6896 7.625 48.2917V12.7083C7.625 11.3104 8.12274 10.1137 9.11823 9.11823C10.1137 8.12274 11.3104 7.625 12.7083 7.625H48.2917C49.6896 7.625 50.8863 8.12274 51.8818 9.11823C52.8773 10.1137 53.375 11.3104 53.375 12.7083V18.4637V19.0625H48.2917V17.7917H33.0417C31.6438 17.7917 30.4471 18.2894 29.4516 19.2849C28.4561 20.2804 27.9583 21.4771 27.9583 22.875V38.125C27.9583 39.5229 28.4561 40.7196 29.4516 41.7151C30.4471 42.7106 31.6438 43.2083 33.0417 43.2083H48.2917V41.9375H53.375V42.5363V48.2917C53.375 49.6896 52.8773 50.8863 51.8818 51.8818C50.8863 52.8773 49.6896 53.375 48.2917 53.375H12.7083Z" fill="black"/>
</svg>
